<svg xmlns="http://www.w3.org/2000/svg" viewBox="0 0 708.39 80.82"><defs><style>.cls-1{fill:#000;}</style></defs><title>section_1_2</title><g id="レイヤー_2" data-name="レイヤー 2"><g id="title"><path class="cls-1" d="M40.05,78.75c-9.18,0-22.95-6.84-22.95-21.69A21.57,21.57,0,0,1,20.25,46a5.12,5.12,0,0,0,.63-1.17.19.19,0,0,0-.18-.18c-.9,0-8.82,3.6-9.72,4.41-1.44,1.26-4.23,1.44-5,1.44A5.72,5.72,0,0,1,0,45.18C0,43,1.62,41,4.23,40.23,5,40,6.84,39.69,8.91,39.15A17.19,17.19,0,0,0,14.31,37c7.2-5.85,15.39-20.7,20.25-28.35a6.07,6.07,0,0,1,5.13-3.15,5.83,5.83,0,0,1,5.76,5.58,5.16,5.16,0,0,1-1.26,3.33C33,29.07,29.43,32.4,26.91,34.47q-.54.41-.54.54c0,.09.09.09.18.09a4.06,4.06,0,0,0,1-.27c1.62-.81,12.69-4.5,21.24-4.5,4,0,5.76,2.61,5.76,5.13,0,1.89-.9,5.31-6.48,5.31a15.26,15.26,0,0,1-2-.09,22.12,22.12,0,0,0-2.52-.18c-1.8,0-9.09.45-12.06,2.52-1,.72-5.76,6.3-5.76,12.15,0,6.39,4.68,11.88,13,11.88.54,0,1-.09,1.44-.09,3.33-.27,7.11,1.26,7.11,5.67C47.25,75.69,44.91,78.75,40.05,78.75ZM16.65,25.2a4.17,4.17,0,0,1-3.87-2.52c-1-2.07-2.61-4.86-4.95-6.3a3.56,3.56,0,0,1-2-3.06c0-2.25,2.34-4.59,5.22-4.59,3.87,0,11.34,6.66,11.34,11.07C22.41,22.77,19.44,25.2,16.65,25.2Z"/><path class="cls-1" d="M103.86,80.82a5.41,5.41,0,0,1-5.58-5.13,5.12,5.12,0,0,1,2.34-4c12.24-8.73,18-20.16,18-29.7,0-2.52-.54-12.51-8.55-12.51a12.67,12.67,0,0,0-6.75,2.16c-.63.45-7.38,4.5-10.8,4.5a5.27,5.27,0,0,1-5.58-5.31,6,6,0,0,1,4.41-5.67c2.34-.81,5-1.71,7.47-2.79A28.89,28.89,0,0,1,110.07,20c12.24,0,19.17,7.83,19.17,21.51,0,13.23-7.83,28-21.24,37.89A6.79,6.79,0,0,1,103.86,80.82ZM116.73,15c-2.07,0-10.26-1.89-17.91-6.21a4.88,4.88,0,0,1-2.7-4.23A4.81,4.81,0,0,1,101.25,0a7.58,7.58,0,0,1,3.24.72A58.41,58.41,0,0,0,117.9,4.5c3.42.63,4.77,2.7,4.77,4.77A5.89,5.89,0,0,1,116.73,15Z"/><path class="cls-1" d="M151.11,69.48c0-1.62.9-3.33,3.15-4.68,2.07-1.26,6.75-5.76,7.65-8.91a4.51,4.51,0,0,1,4.5-3.42c2.52,0,5.22,1.89,5.22,4.68,0,4.32-7.65,17.37-14.67,17.37C153.72,74.52,151.11,72.09,151.11,69.48Zm40.32-26.19c.54.18,13.41,4.68,13.41,10.44A5.41,5.41,0,0,1,199.71,59a4.36,4.36,0,0,1-3.33-1.62A29.84,29.84,0,0,0,187.11,51a3.67,3.67,0,0,1-2.43-3.51,4.75,4.75,0,0,1,3.87-4.5c-5.4,0-10.89-.18-15.57-.36-7.74-.27-11.16-3.69-11.43-10.17-.09-3.15-.18-6.48-.18-9.72,0-14.76,0-20.52,13-20.88,4.95-.18,11.16-.27,17.1-.27s11.88.09,16.11.27c8.91.36,12.06,4.5,12.24,10.8.09,3.6.27,7.83.27,11.79,0,11.7-.9,17.55-12.6,18.18-4.95.27-10.89.45-16.92.45ZM186,9.72c-4.5,0-8.64.18-11.7.36-3.69.27-3.78,3.15-3.78,8.19H186ZM186,26H170.55c0,5.49,0,8.37,4,8.55l11.43.36Zm16.74,37.53c0-3.15,2.52-4.59,5-4.59,2.7,0,5.67,1.62,5.67,5.22,0,13.68-13.77,14.22-21.33,14.22-8,0-18.09,0-18.09-11.25,0-4,0-11.52.18-15.75.09-2.79,2.52-4.14,4.95-4.14s4.95,1.44,4.95,4.14v.27C184,55.53,184,62.28,184,65.34c0,3.87,3.42,3.87,8.55,3.87,7.65,0,10.26-1.62,10.26-5.58Zm7.65-45.27-.18-4.95c-.09-2.07-.9-3.06-3.51-3.24-3-.18-7.11-.27-11.61-.36v8.55ZM195.12,26v8.91c3.69,0,7.47-.18,11.34-.36,3.69-.18,4-3.24,4-8.55Zm31.59,45.54a5.38,5.38,0,0,1-4.68-3,30.79,30.79,0,0,0-9.72-10.44,3.51,3.51,0,0,1-1.8-3c0-2.34,2.52-4.68,5.31-4.68,3.24,0,16.56,9.81,16.56,15.57A5.73,5.73,0,0,1,226.71,71.55Z"/><path class="cls-1" d="M241.56,34.74c-.27-4.23-.45-6.12-.45-8.46V24.75a5.56,5.56,0,0,1,5.58-5.4c1.89,0,4.95,1.08,4.95,6.48,0,1.8-.09,3.15-.09,5,0,18.63,7.2,25.65,9.27,25.65.18,0,1.8,0,4.95-6.66A4.43,4.43,0,0,1,269.91,47c2.7,0,5.49,2.16,5.49,5,0,1.89-5.22,15.93-14.85,15.93C251.73,68,242.91,55.35,241.56,34.74Zm58.41,13c-1.44-7-5-14.13-9.63-17.28a3.82,3.82,0,0,1-1.89-3.24,4.71,4.71,0,0,1,4.86-4.41c5.67,0,17.55,14.49,17.55,23.4A5.77,5.77,0,0,1,305,52.11,5,5,0,0,1,300,47.79Z"/><path class="cls-1" d="M355.59,25.92a85.9,85.9,0,0,1-13.68,1.26c-4.05,0-6.21-2.7-6.21-5.22s1.89-4.77,5.94-4.77c.36,0,.72.09,1.17.09,1.26.09,2.52.18,3.87.18a58.59,58.59,0,0,0,8.91-.72c0-2.25-.09-4.41-.09-6.3s.09-3.51.09-4.86c.09-3.78,2.43-5.31,5-5.31,2.7,0,5.49,1.89,5.49,4.86v.36c-.18,3-.36,6.12-.45,9.45l4.86-1.08a9,9,0,0,1,1.44-.18,4.7,4.7,0,0,1,4.95,4.59c0,2.25-1.71,4.5-5.76,5.13-2.07.27-4,.63-5.76.9,0,2.88,0,5.76.09,8.64l5.67-1.8a8.77,8.77,0,0,1,2.52-.45c3.15,0,5.22,2.25,5.22,4.59,0,2.07-1.62,4.32-5.4,5.4-2.79.81-5.31,1.44-7.65,2.07.18,2.79.27,5.49.54,7.92.18,2.16.54,5.13.72,8.1,11.25,4.41,13.59,8.46,13.59,11.61a5.06,5.06,0,0,1-4.86,5.31,6.87,6.87,0,0,1-4.41-2,41.18,41.18,0,0,0-5.31-4C363.6,75,357,79.83,349.2,79.83s-15.75-5-15.75-11.79c0-9.54,12.69-12.15,19.17-12.15a30.54,30.54,0,0,1,4.95.36c-.09-1.53-.18-3.15-.36-4.77-.18-2-.27-4.23-.45-6.66a54.79,54.79,0,0,1-10.53,1.08c-4.59,0-9.81-.27-9.81-5.4a4.89,4.89,0,0,1,5.22-5,12.3,12.3,0,0,1,1.71.18,21.76,21.76,0,0,0,3.78.27,47.78,47.78,0,0,0,9.09-.9C356,32,356,29,355.86,25.92Zm-5.67,38.34c-5.85,0-7.65,2-7.65,3.6,0,2.34,3.42,3.06,5.76,3.06,3.87,0,7.83-2.07,8.64-4.86l.18-.72A23.63,23.63,0,0,0,349.92,64.26Z"/><path class="cls-1" d="M458.1,36.36c-.18,1.62-.27,3.33-.54,4.86-2,13.59-8.73,16.2-12.42,16.2a7.74,7.74,0,0,1-6.39-3.33c-1.17-1.62-2.52-3.15-3.51-4.86a4.58,4.58,0,0,1-.63-2.34,3.84,3.84,0,0,1,3.78-4,5.08,5.08,0,0,1,3.87,2.25c1.17,1.44,2,2,2.7,2,1.35,0,3.33-2.7,4.05-9.63a188.88,188.88,0,0,0-19.08,4c.36,18.18.81,23.4,11.79,23.4,5.22,0,8.55-1.26,13.41-2.43a6.43,6.43,0,0,1,1.8-.18,5.24,5.24,0,0,1,5.58,5.13c0,2.16-1.35,4.32-4.32,5.13a47.9,47.9,0,0,1-13.32,1.71c-20.25,0-22.86-7.83-24-30.06l-.72.27c-8.64,2.88-14.85,4.77-16.2,4.77A5.2,5.2,0,0,1,398.61,44c0-2.34,1.53-4.77,5.13-5.67,4-1,10.62-2.61,14.58-3.51l2.07-.45v-.54c-.18-5.22-.54-8.73-.72-12.6V21a5.29,5.29,0,0,1,5.49-5.31,5,5,0,0,1,5.22,5.13c0,2.88,0,6.93-.27,11.16v.27c5.67-1.17,12.42-2.52,19.26-3.69,0-2.52-.09-5-.09-6.93,0-2.34-.09-4.68-.18-7V14.4a5,5,0,0,1,5.22-5,4.86,4.86,0,0,1,5,5.22,74.83,74.83,0,0,1-.45,8.19l-.27,4.23,1.71-.18a102.15,102.15,0,0,1,12.51-1.08c4,0,7.83.72,7.83,4.77,0,2.7-2.25,5.49-6.48,5.49h-.63c-2.25-.18-4.14-.18-6.12-.18s-3.87,0-6.12.18Z"/><path class="cls-1" d="M532.71,74.79c-6.75,0-12.42-3.69-12.42-13.41v-.27c0-3.6.45-6,.45-9.18s-.72-5.49-3.42-5.49c-4.23,0-10.35,4.68-11.79,7.29-2.25,4-4.59,7.65-5.49,12.06-1.53,7.11-3.33,8-6.75,8-2.7,0-5.85-1.53-5.85-5,0-2.16,3.6-12.15,14.94-30.06L516.6,16.11c1.53-2.43,4-5.67,4.95-7.38a5,5,0,0,1,4.32-2.61,5.92,5.92,0,0,1,5.85,5.67c0,1.62-.18,3-5,8.28-9.81,10.62-15.75,20.43-15.75,20.7,0,.09,0,.09.09.09s.27-.18.45-.36c.63-.63,3.78-2.43,8.64-2.43,8.46,0,11.07,6.75,11.07,12.87,0,2.79-.54,5-.54,7.83,0,3.87,1.89,5.67,4.5,5.67,3.42,0,10.17-3.24,15.21-15.84a5.1,5.1,0,0,1,4.77-3.6,6,6,0,0,1,5.94,5.85,6.87,6.87,0,0,1-.9,3.33C552,69.84,541.53,74.79,532.71,74.79Z"/><path class="cls-1" d="M598.32,34.29C593.91,48.06,588.15,60.12,581.13,70a6.73,6.73,0,0,1-5.49,3.06c-3,0-5.58-2.07-5.58-5a7.16,7.16,0,0,1,2.07-4.59c6.12-6.84,11.43-16.29,15.48-27.72a53.43,53.43,0,0,1-9.9,1.35c-3.6,0-5.31-2.34-5.31-4.77a5.26,5.26,0,0,1,5-5.22c2.7-.27,5.49-.18,8.73-.45l4.14-.36a89,89,0,0,0,2.61-13.59,5.16,5.16,0,0,1,5.31-4.68c2.61,0,5.13,1.62,5.13,4.68a93.86,93.86,0,0,1-2.43,12.6l2-.18a8.24,8.24,0,0,1,1.44-.09c5.31,0,12.78,2.79,12.78,16.47,0,29.43-17,30.06-19.89,30.06-5.58,0-9.36-2.52-9.36-6a5,5,0,0,1,5-5.13,7.06,7.06,0,0,1,1.26.18,14.71,14.71,0,0,0,3.24.45c8.37,0,9.9-12.6,9.9-20,0-5-1.71-7.2-4.77-7.2h-.72Zm41,14.85a4.62,4.62,0,0,1-4.32-3c-2.16-4.86-5.67-11.43-12.15-14.94a3.7,3.7,0,0,1-2.16-3.33,4.6,4.6,0,0,1,4.68-4.41c5.67,0,19.62,13.41,19.62,20.07A5.74,5.74,0,0,1,639.36,49.14Z"/><path class="cls-1" d="M680.58,52.74c0-5,2.43-8.91,4.95-12.06,3.6-4.41,8.55-7.83,10.35-11a14.15,14.15,0,0,0,1.8-6.84c0-5.58-3.42-10.35-9.45-10.35A10.54,10.54,0,0,0,678,20.43c-.54,2.07-2.79,3.15-5.22,3.15-2.79,0-5.76-1.62-5.76-5,0-3.15,5-16.38,21.15-16.38,11.16,0,20.25,8,20.25,20.34a26,26,0,0,1-1.8,9.18c-2.16,5.31-9.54,10.89-12,13.77-1.8,2.16-3.06,4.41-3.06,7a5.7,5.7,0,0,1-5.76,5.85C683.19,58.32,680.58,56.52,680.58,52.74ZM686.16,77c-2.79,0-6.84-2.43-6.84-6.57a6.93,6.93,0,0,1,6.93-6.93C691,63.45,693,67,693,70.29,693,75.15,688.86,77,686.16,77Z"/></g></g></svg>