<svg xmlns="http://www.w3.org/2000/svg" viewBox="0 0 843.84 82.62"><defs><style>.cls-1{fill:#fff;}</style></defs><title>section_2_1</title><g id="レイヤー_2" data-name="レイヤー 2"><g id="title"><path class="cls-1" d="M0,68.76c0-1.89,1.17-3.78,3.78-5,12.06-5.4,20-18,20-33.66a23.58,23.58,0,0,0-.09-2.52v-.45a5,5,0,0,1,5.13-5.31,5.29,5.29,0,0,1,5.49,5V29c0,28.08-22.41,44.82-28.71,44.82A5.34,5.34,0,0,1,0,68.76ZM50.67,25.83l-1,29.07v.27c0,.9.27,1.26.81,1.26,1.17,0,11-4.77,20.34-22a5.25,5.25,0,0,1,4.68-3.15A5.55,5.55,0,0,1,81,36.63a6.09,6.09,0,0,1-.81,2.88c-9.81,17.55-26.64,30-33.66,30-4.05,0-7.38-2.7-7.38-8.1V60.3c.63-8.1,1.26-29.25,1.26-34.47,0-3.69,2.61-5.58,5.13-5.58a5.11,5.11,0,0,1,5.13,5.49Z"/><path class="cls-1" d="M93.78,46.62c-3.69,0-5.49-2.43-5.49-4.95a5.32,5.32,0,0,1,5.49-5.4h56.34a5.18,5.18,0,1,1,0,10.35Z"/><path class="cls-1" d="M165.24,68.76c0-1.89,1.17-3.78,3.78-5,12.06-5.4,20-18,20-33.66a23.58,23.58,0,0,0-.09-2.52v-.45A5,5,0,0,1,194,21.87a5.29,5.29,0,0,1,5.49,5V29c0,28.08-22.41,44.82-28.71,44.82A5.34,5.34,0,0,1,165.24,68.76Zm50.67-42.93-1,29.07v.27c0,.9.27,1.26.81,1.26,1.17,0,11-4.77,20.34-22a5.25,5.25,0,0,1,4.68-3.15,5.55,5.55,0,0,1,5.49,5.4,6.09,6.09,0,0,1-.81,2.88c-9.81,17.55-26.64,30-33.66,30-4.05,0-7.38-2.7-7.38-8.1V60.3c.63-8.1,1.26-29.25,1.26-34.47,0-3.69,2.61-5.58,5.13-5.58a5.11,5.11,0,0,1,5.13,5.49Z"/><path class="cls-1" d="M263.25,78.93c-2.16,0-4.41-1.44-5.49-4.86a61.74,61.74,0,0,1-2.25-17.73,120.83,120.83,0,0,1,.81-14c1.17-10.8,3.15-20.7,3.51-26.46.27-3.87,2.79-5.49,5.22-5.49a5.05,5.05,0,0,1,5.31,4.86c0,.27-.09.54-.09.81-.63,4.05-2.16,11.52-3.33,19.17-1.08,7-2,13.68-2,16.92,0,1.53.18,2.07.36,2.07s.18-.27.36-.81c1.17-3.51,2.61-4.23,4.05-4.23,2,0,4,1.71,4,4.77a9.74,9.74,0,0,1-1.08,4c-2.79,5.85-4.14,12.24-4.14,15.3C268.2,78.93,263.7,78.93,263.25,78.93Zm51.12-57a7.36,7.36,0,0,1,1.89-.27,5.31,5.31,0,0,1,5.49,4.95c0,2-1.35,4-4.95,4.77L311,32.85c.09,9.81.27,13.59,1.08,25.11a39.56,39.56,0,0,1,9.72,6.39A6.29,6.29,0,0,1,323.91,69c0,3.06-2.43,5.94-5.13,5.94a4.83,4.83,0,0,1-3.51-1.71,35.81,35.81,0,0,0-4.77-4.14,19.18,19.18,0,0,1-16.29,9.54c-7,0-14.31-4.5-14.31-11.79,0-6.57,6.39-12.42,17.19-12.42a29.3,29.3,0,0,1,5.58.54c-.36-4.14-.36-4.23-1-20.34a57.7,57.7,0,0,1-8.91.63c-5.13,0-9.54-.18-9.54-5a5,5,0,0,1,5.4-5,6.81,6.81,0,0,1,1.35.09,27.68,27.68,0,0,0,4.77.36,42.39,42.39,0,0,0,6.66-.54c-.09-3.33-.09-6.48-.09-9V13.32a4.69,4.69,0,0,1,4.95-4.68c2.43,0,4.86,1.44,4.86,4.14v.36c-.18,2.34-.27,5.85-.27,9.9ZM294.93,62.82c-4.32,0-6.21,1.8-6.21,3.6,0,2,2.7,2.88,5,2.88,3.42,0,7-1.8,8.1-5A20.32,20.32,0,0,0,294.93,62.82Z"/><path class="cls-1" d="M351.63,19.8A6.05,6.05,0,0,1,350.1,16c0-2.88,2.79-5,5.67-5a5.78,5.78,0,0,1,4.68,2.52,92.58,92.58,0,0,1,10.17,20.25c14.4-10,17-10.35,18.18-10.35a5.3,5.3,0,0,1,5.13,5.4,6.16,6.16,0,0,1-3.78,5.49c-31.95,16.29-32.22,23.94-32.22,26.1,0,4.5,5.13,7.47,12.42,7.47a51.89,51.89,0,0,0,16-2.79,8,8,0,0,1,2.7-.54,5.13,5.13,0,0,1,5.22,5.31c0,2.61-1.71,5.31-5.58,6.39a65.43,65.43,0,0,1-16,2c-17.46,0-24.57-8.46-24.57-16.83,0-6.3,3.87-13.77,13.95-21.33C359.73,33.12,355.59,24.66,351.63,19.8Z"/><path class="cls-1" d="M447.93,78c-3.42,0-5.13-2.25-5.13-4.59,0-2.16,1.53-4.5,4.86-5,14-1.89,22.59-9.09,22.59-15.3,0-3.24-3.15-7.56-10.53-7.56-5.94,0-12.06,2.88-16.29,4.95-3.06,1.53-5.94,3.15-8.91,4.5a6.49,6.49,0,0,1-2.7.63,4.9,4.9,0,0,1-1.62-9.54c16.92-6.93,22-8.82,29.43-8.82,14.58,0,20.25,9.9,20.25,16.29C479.88,69.3,456.39,78,447.93,78Z"/><path class="cls-1" d="M537.93,17.73c10.8-3.15,18.54-5.22,25-5.22,4.77,0,6.66,3.15,6.66,6,0,3.24-2,5.22-7.74,5.22a17.37,17.37,0,0,1-2.07-.09h-1.26a36.18,36.18,0,0,0-11.88,2.52c-5.85,2.07-14.4,10.53-14.4,21.6,0,9.63,6.66,18.63,19.53,18.63h1c5.94-.18,8.37,3.15,8.37,5.94s-2.43,5.58-7.74,5.58c-19.35,0-30.78-13.5-30.78-28.8a31.86,31.86,0,0,1,5.94-18.45,4,4,0,0,0,.81-1.35c0-.18-.09-.27-.36-.27a4.52,4.52,0,0,0-1.26.27c-4.23,1.08-6.48,3.06-9.81,4.41-6.21,2.61-8.46,3.06-10,3.06a5.84,5.84,0,0,1-6-5.94,5.67,5.67,0,0,1,4.86-5.58C510.66,24.57,523.53,21.78,537.93,17.73Z"/><path class="cls-1" d="M617.31,25.38a10.47,10.47,0,0,1,2.43-.36,4.68,4.68,0,0,1,4.68,4.86c0,4.68-4.32,5.13-8.46,5.58L614.7,45.81a25.14,25.14,0,0,0,3-.54,6.12,6.12,0,0,1,1.71-.27,5.1,5.1,0,0,1,5,5.13c0,3.6-3.42,5.22-10.62,5.76,0,1.17-.09,2.25-.09,3.33s.09,2.16.09,3.15c.27,6.12,3.87,9.09,7.92,9.09,5.94,0,11.25-6.12,11.25-12.6,0-4.14-2.16-7.92-5.4-11.52a5.34,5.34,0,0,1-1.62-3.6c0-2.61,2.52-4.68,5.31-4.68a5.64,5.64,0,0,1,4.41,2.16c4.86,5.67,7.47,11.52,7.47,17.64a22,22,0,0,1-22,22.23c-5.13,0-16.56-2.07-16.56-20.07,0-1.62,0-3.42.09-5.22-5.13-.45-11.16-1-11.16-6.48,0-2.43,1.8-4.77,4.23-4.77a4.08,4.08,0,0,1,1.44.27A25.38,25.38,0,0,0,605.43,46c.36-3.51.72-7.11,1.17-10.71-7.74-1.08-11-2.7-11-6.57,0-2.61,2.07-5.22,4.68-5.22a3.53,3.53,0,0,1,1.62.36,30.26,30.26,0,0,0,5.76,1.62L608,23c.54-5.58.63-9.27,1-13.32.27-3.24,2.43-4.68,4.68-4.68a5.41,5.41,0,0,1,5.58,5.22c0,4.23-1,7.47-1.62,12.78Z"/><path class="cls-1" d="M677.52,13.68c-4.32,5-9.27,9.27-12.33,9.27-2.61,0-4.86-2-4.86-4.23a4.09,4.09,0,0,1,2.07-3.33c6.12-4.05,8.91-7.2,12.78-13.5A3.78,3.78,0,0,1,678.33,0a5.17,5.17,0,0,1,4.95,4.86A3.61,3.61,0,0,1,683,6.21h11.16a3.66,3.66,0,0,1,4,3.69,3.68,3.68,0,0,1-4,3.78Zm-2,34.74c0,6.75-.27,19.26-.45,29.88,0,2.88-2.43,4.32-4.77,4.32s-4.77-1.44-4.77-4.23v-.18c.45-14,.45-33.3.63-49,0-3.69,1.62-7.47,8.91-7.83,2.07-.09,5.67-.09,8.91-.09a10,10,0,0,0-2.61-1.17,2.6,2.6,0,0,1-2-2.43c0-1.71,1.89-3.69,4.41-3.69,1.26,0,7.74,1.71,7.74,5.31a3.23,3.23,0,0,1-.81,2.16c4,.45,7,2.88,7.2,5.94.09,2.34.18,5.22.18,7.83,0,9.18-.09,11.07-17.82,11.07-1.89,0-3.6,0-4.77-.09Zm-.09-12c0,1.26.09,2.61.09,3.78h2.7c10.53,0,10.8,0,10.89-2,0-.45.09-1.17.09-1.8Zm13.77-5.31c0-.72-.09-1.26-.09-1.8-.18-1.62-.63-1.89-6.66-1.89-6.66,0-6.66.27-6.84,2.52,0,.36-.09.72-.09,1.17Zm2.7,16.65c2.61-.09,5.4-.18,8.1-.18s5.4.09,7.74.18c4.32.18,7.83,3.24,8.19,6.48.18,1.8.27,3.87.27,6,0,2.34-.09,4.77-.18,7-.18,4-3.69,7.11-8.46,7.47-2.16.18-4.59.27-7.11.27-2.88,0-5.76-.09-8.28-.27-5.31-.36-8.64-3.24-8.82-7.38-.09-1.71-.09-3.69-.09-5.67,0-2.43,0-4.86.18-6.84C683.64,51.48,686.25,48.06,691.92,47.79ZM708,58c0-.54-.09-1-.09-1.35-.09-2.43-1-2.79-7.2-2.79-8.19,0-9.45,0-9.63,2.88,0,.36-.09.81-.09,1.26Zm0,5.76H691c0,.81.09,1.44.09,2,.09,2.16,1.08,2.7,8.28,2.7,5.94,0,8.46,0,8.64-2.79Zm1.8-50c-2,2.25-7.11,7.47-10.53,7.47-2.52,0-4.59-2-4.59-4a4,4,0,0,1,2-3.24c4.77-3.15,6.75-5.31,10.62-11.79a3.54,3.54,0,0,1,3.06-1.8A5,5,0,0,1,715.23,5a6.19,6.19,0,0,1-.18,1.17H734a3.66,3.66,0,0,1,4,3.69,3.68,3.68,0,0,1-4,3.78Zm10.53,32.58c-11.07,0-18-.09-18.45-6.48-.09-1.35-.09-3-.09-4.68,0-2.7.09-5.58.18-7.74.18-3.42,3.69-5.94,8.1-6,1.26,0,3.69-.09,6.3-.09a10,10,0,0,0-2.61-1.17,2.68,2.68,0,0,1-2-2.43c0-1.71,1.89-3.69,4.32-3.69,2.7,0,7.83,2.34,7.83,5.22a3.4,3.4,0,0,1-.72,2.07c.72,0,1.26.09,1.8.09,6.75.36,9.54,3.51,9.54,7.11,0,5.67.18,20.7.18,28.71v3.33c0,3.87.09,7.29.09,10.08,0,6.12-3.51,11.43-13,11.43-8.19,0-9.54-2.34-9.54-5.13a3.82,3.82,0,0,1,3.87-4c.27,0,.54.09.81.09a22.73,22.73,0,0,0,4.14.54c2.25,0,4.05-.9,4.14-4.68.09-5,.09-17.64.09-22.59C724.23,46.26,722.43,46.26,720.36,46.26Zm4.86-15.12c0-.63-.09-1.17-.09-1.62-.09-1.89-.45-2.07-7.11-2.07-5.58,0-7,.09-7.2,1.89,0,.54-.09,1.08-.09,1.8Zm.09,5.31H710.82v1.8c.18,2,1.17,2,11.61,2h3Z"/><path class="cls-1" d="M787.41,68.13V77.4a4.84,4.84,0,0,1-4.95,5,4.65,4.65,0,0,1-4.77-5l.09-9.27-28.71.18a4.13,4.13,0,0,1-4.5-4.23,4.47,4.47,0,0,1,4.5-4.59l28.71.18V54.18c-5.22,0-11.16,0-14.22-.09-6.48-.18-9.72-3.51-10-8.37-.09-2.25-.18-5.4-.18-8.55s.09-6.3.18-8.46c.27-4,2.61-8,9.81-8.1,5.76-.09,11.43-.18,17.1-.18,4,0,8.19.09,12.42.09,2.16-3.06,5.31-10.26,6.39-13.68A4.69,4.69,0,0,1,804,3.33c2.79,0,5.67,2,5.67,4.86,0,.54,0,3-7.38,12.42h.36c5.13.09,8.91,3.69,9.18,7.47.18,2.25.27,5.13.27,8.1,0,3.42-.09,6.84-.27,9.36-.27,4.41-3.87,8.37-9.81,8.55-3.78.09-9.63.09-14.67.09v5.49l29.34-.18A4.17,4.17,0,0,1,821,63.9a4.22,4.22,0,0,1-4.32,4.41ZM765.18,19.62a3.89,3.89,0,0,1-3.51-2.34c-1.44-3-3-4.23-4.95-6.3a3.8,3.8,0,0,1-1.17-2.61c0-2.25,2.52-4.14,5.13-4.14,4.5,0,9.9,7.83,9.9,10.35C770.58,17.28,767.79,19.62,765.18,19.62ZM778,27.72c-4,0-7.92.18-11.61.27-3.33.09-4,2.43-4,5.67h15.48Zm-.09,12.87H762.39c0,4.59.9,5.85,4.05,5.94,3.51.09,7.47.09,11.43.09Zm5.49-22.23a3.56,3.56,0,0,1-3.69-3c-.72-3.06-2.25-5.22-3.69-7.47a3.91,3.91,0,0,1-.63-2.07c0-2.16,2.34-3.78,4.86-3.78,5.76,0,8.64,10.26,8.64,11.34C788.85,16.29,785.88,18.36,783.36,18.36Zm19.26,15.3a24.47,24.47,0,0,0-.09-2.7c-.18-3-1.26-3.24-15.3-3.24v5.94Zm-15.3,6.93v6c3.87,0,7.74,0,11.52-.09s3.87-3.24,3.87-5.94Z"/><path class="cls-1" d="M836.82,76.59a6.89,6.89,0,0,1-6.93-6.75,7,7,0,0,1,7-7c.81,0,6.93.09,6.93,6.93C843.84,74.7,839.52,76.59,836.82,76.59Zm-4.59-22.77V51.66c0-7.74-.81-23.31-1.26-37.89V13.5a5.47,5.47,0,0,1,5.76-5.58,5.76,5.76,0,0,1,6,5.85c0,10.44-1.26,29.7-1.26,37.89V53.1a5,5,0,0,1-4.86,5.49A4.4,4.4,0,0,1,832.23,53.82Z"/></g></g></svg>