<svg xmlns="http://www.w3.org/2000/svg" viewBox="0 0 529.29 83.97"><defs><style>.cls-1{fill:#000;}</style></defs><title>section_about_3_2</title><g id="レイヤー_2" data-name="レイヤー 2"><g id="title"><path class="cls-1" d="M14.31,46.71A6,6,0,0,1,8.64,42.3C7,37.71,4.32,32.22,1.26,28.8a4.32,4.32,0,0,1-1.26-3c0-2.43,2.52-4.68,5.49-4.68a7,7,0,0,1,5.13,2.61c3.6,4.14,9.63,13.86,9.63,17.28A5.88,5.88,0,0,1,14.31,46.71ZM8.64,80.64a5.34,5.34,0,0,1-5.4-5.31,5.25,5.25,0,0,1,3.15-4.77C26.82,60.48,38.34,43.47,43.47,23A5.11,5.11,0,0,1,48.6,18.9c3,0,6.21,2.25,6.21,5.85a5.91,5.91,0,0,1-.36,2.07C47.61,48.6,37.17,66.6,12.33,79.65A7.84,7.84,0,0,1,8.64,80.64ZM46.17,17.55A3.19,3.19,0,0,1,43,15.3a34.48,34.48,0,0,0-5.13-7.47,4,4,0,0,1-1.53-3c0-1.89,2-3.51,4.23-3.51,3.51,0,10.53,8.28,10.53,11.43A5,5,0,0,1,46.17,17.55ZM58,13.77a34.23,34.23,0,0,0-5.4-7.2,4,4,0,0,1-1.62-3c0-2,2-3.6,4.23-3.6C58.5,0,65.79,7.83,65.79,11.16A5,5,0,0,1,61,15.93,3.19,3.19,0,0,1,58,13.77Z"/><path class="cls-1" d="M84.15,52.38a5.15,5.15,0,0,1-5.22-5.13A5.53,5.53,0,0,1,82,42.48c8.55-5,20.16-22,24-28.53a5,5,0,0,1,4.41-2.52c2.79,0,5.67,2.07,5.67,5A6.27,6.27,0,0,1,115,19.62c.36,0,9.27-.63,11.25-.63,5.4,0,10.62,3.15,10.62,7.83a7.84,7.84,0,0,1-1,3.69c-11.43,21.6-23.22,39.33-48.78,49.41a9.41,9.41,0,0,1-3.33.63c-3.42,0-5.67-2.43-5.67-5,0-2.07,1.35-4.23,4.59-5.31,27.9-9.63,40.5-38.07,40.5-39.78a2,2,0,0,0-2.07-2.07c-1,0-5.85.27-13.23,1.08C94.41,47.25,88,52.38,84.15,52.38Z"/><path class="cls-1" d="M179.55,46.71a6,6,0,0,1-5.67-4.41c-1.62-4.59-4.32-10.08-7.38-13.5a4.32,4.32,0,0,1-1.26-3c0-2.43,2.52-4.68,5.49-4.68a7,7,0,0,1,5.13,2.61c3.6,4.14,9.63,13.86,9.63,17.28A5.88,5.88,0,0,1,179.55,46.71Zm-5.67,33.93a5.34,5.34,0,0,1-5.4-5.31,5.25,5.25,0,0,1,3.15-4.77c20.43-10.08,32-27.09,37.08-47.61a5.11,5.11,0,0,1,5.13-4.05c3,0,6.21,2.25,6.21,5.85a5.91,5.91,0,0,1-.36,2.07c-6.84,21.78-17.28,39.78-42.12,52.83A7.84,7.84,0,0,1,173.88,80.64Zm37.53-63.09a3.19,3.19,0,0,1-3.15-2.25,34.48,34.48,0,0,0-5.13-7.47,4,4,0,0,1-1.53-3c0-1.89,2-3.51,4.23-3.51,3.51,0,10.53,8.28,10.53,11.43A5,5,0,0,1,211.41,17.55Zm11.79-3.78a34.23,34.23,0,0,0-5.4-7.2,4,4,0,0,1-1.62-3c0-2,2-3.6,4.23-3.6C223.74,0,231,7.83,231,11.16a5,5,0,0,1-4.77,4.77A3.19,3.19,0,0,1,223.2,13.77Z"/><path class="cls-1" d="M249.39,52.38a5.15,5.15,0,0,1-5.22-5.13,5.53,5.53,0,0,1,3.06-4.77c8.55-5,20.16-22,24-28.53a5,5,0,0,1,4.41-2.52c2.79,0,5.67,2.07,5.67,5a6.27,6.27,0,0,1-1.08,3.15c.36,0,9.27-.63,11.25-.63,5.4,0,10.62,3.15,10.62,7.83a7.84,7.84,0,0,1-1,3.69c-11.43,21.6-23.22,39.33-48.78,49.41a9.41,9.41,0,0,1-3.33.63c-3.42,0-5.67-2.43-5.67-5,0-2.07,1.35-4.23,4.59-5.31,27.9-9.63,40.5-38.07,40.5-39.78a2,2,0,0,0-2.07-2.07c-1,0-5.85.27-13.23,1.08C259.65,47.25,253.26,52.38,249.39,52.38Z"/><path class="cls-1" d="M324.81,84c-2.43,0-4.86-1.44-4.86-4.23v-.27c.63-16.56.45-46.44.63-65.34,0-8.91,6.48-8.91,15.93-8.91,3.78,0,7.74,0,9.45.09,4.59.18,8.28,3.24,8.46,7.29.09,3.15.18,6.39.18,9.45,0,2,0,3.87-.09,5.67-.27,7.56-7.92,7.74-19.53,7.74-1.89,0-3.69,0-4.77-.09V43.2c0,9.81-.09,23.49-.36,36.27C329.85,82.44,327.33,84,324.81,84Zm5.4-60.3v4.5c.81.09,2.43.09,4.32.09,9.63,0,10.71,0,10.8-2.34,0-.72.09-1.44.09-2.25Zm15.21-6.48c0-.72-.09-1.44-.09-2.16-.18-2.34-1-2.34-8.37-2.34-6.39,0-6.48.27-6.66,3v1.53ZM369.36,61V75a4.5,4.5,0,0,1-9,0v-14h-6.93c-1,9.45-4.86,16.2-15,19.26a7.93,7.93,0,0,1-1.89.27,4,4,0,0,1-4.23-4.14,3.67,3.67,0,0,1,3-3.78c6.57-1.26,8.55-5.85,9.27-11.52h-5.94c-3.06,0-4.5-1.8-4.5-3.78a4.21,4.21,0,0,1,4.5-4.05l6.3.09V52.2c0-2.34-.09-4.14-.18-6.12h-4.59c-3.06,0-4.5-1.8-4.5-3.78a4.21,4.21,0,0,1,4.5-4h32.94a3.93,3.93,0,1,1,0,7.83h-3.69v7.2l6.21-.09a3.93,3.93,0,1,1,0,7.83Zm-9-15H353.7v7.29h6.66Zm19.26-10.53c-12.42,0-19.89-.09-20.16-7.74-.09-1.8-.09-3.69-.09-5.67,0-3.15.09-6.39.18-9.63.18-4,3.69-6.93,8.19-7.11,1.71-.09,5.85-.09,9.72-.09,2.79,0,5.49,0,7,.09,6.75.36,9.72,3.78,9.72,7.65v.18c0,3.78-.09,7.74-.09,11.79,0,12.15.18,24.84.18,34.92,0,4.23.18,8.1.18,11.25,0,6.75-3.6,12.69-13.86,12.69-4.5,0-10.35-.36-10.35-5.67a4.28,4.28,0,0,1,4.23-4.5,3.06,3.06,0,0,1,.9.09,27.67,27.67,0,0,0,4.59.54c2.43,0,4.41-1,4.59-5.13.09-3.6.18-7.74.18-11.88,0-6.39-.09-13.05-.09-18.45V35.37C383.58,35.46,381.69,35.46,379.62,35.46Zm4.86-18.27c0-.63-.09-1.35-.09-2-.09-2.16-.63-2.52-6.75-2.52-7.38,0-8.91,0-9.09,2.34v2.16Zm.18,6.48H368.55c0,.81.09,1.53.09,2.25.09,2.34,1.35,2.34,11.34,2.34,2.07,0,3.87,0,4.68-.09Z"/><path class="cls-1" d="M410,79.2l.9-40.32c-3.33,4.14-5.94,7.11-9,7.11a4.66,4.66,0,0,1-3.24-8.19A85.94,85.94,0,0,0,418.14,7.2a4.5,4.5,0,0,1,4.41-3.15c2.79,0,5.76,2.16,5.76,5,0,2.43-5.67,12.33-7.65,15.66l-.81,54.54a4.83,4.83,0,0,1-5,4.68A4.55,4.55,0,0,1,410,79.29Zm65.34-5.76a3.52,3.52,0,0,1,3.51,3.78,3.59,3.59,0,0,1-3.51,3.87c-3.78.09-8.55.09-13.5.09-8,0-16.56-.09-22.77-.18-8.82-.18-8.82-5.13-8.82-12.33,0-4.23.09-9.18.18-13.5l-.81.72a5.74,5.74,0,0,1-3.87,1.71,4.56,4.56,0,0,1-4.5-4.41,4.77,4.77,0,0,1,2-3.6c5-4.05,8.64-8.82,12.51-16.38a4.53,4.53,0,0,1,4.23-2.7c2.52,0,5,1.8,5,4.23,0,.81,0,1.08-2.34,4.95h7.83a67.21,67.21,0,0,0,3.06-6.75,3.64,3.64,0,0,1,3.6-2.16c2.52,0,5.22,1.62,5.22,3.78,0,.72-.36,1.53-2.43,5.13,5,0,9.9,0,14.13.09a3.4,3.4,0,0,1,3.51,3.51,3.54,3.54,0,0,1-3.78,3.6c-4.5,0-9.54-.09-14.49-.09V51h11.61c2.61,0,3.87,1.62,3.87,3.15s-1.26,3.24-3.87,3.24H459.27v4.5h11.61c2.61,0,3.87,1.62,3.87,3.15s-1.26,3.24-3.87,3.24H459.27v5.31c5.67,0,11.34-.09,15.93-.18ZM470.88,8.73c2.43,0,4.86,1.35,4.95,4,.09,1.17.09,2.25.09,3.24,0,7-.09,13.32-10.53,13.68-3.15.09-8.37.18-13.5.18-21.6,0-23.4,0-23.4-12.78,0-1.53.09-3.06.09-4.41.09-2.43,2.52-3.78,4.86-3.78s4.5,1.26,4.5,3.69v.09c0,1.62-.09,3.24-.09,4.68a18.07,18.07,0,0,0,.09,2.25c.18,2.7.18,2.7,9.18,2.7V7.83c0-2.88,2.34-4.23,4.77-4.23S456.84,5,456.84,8l.09,14.31c2.7,0,5-.09,6.48-.18,2.79-.27,2.79-1.62,2.79-7.2V12.6C466.2,10.08,468.54,8.73,470.88,8.73ZM450.27,57.42H439.2c0,1.44-.09,3-.09,4.5h11.16Zm0,10.8H439.11v2.61c0,1.89.81,2.61,2.7,2.7,2.43.09,5.31.09,8.46.09Zm0-21.33h-8.46a2.44,2.44,0,0,0-2.43,2.52c0,.45-.09,1.08-.09,1.62h11Z"/><path class="cls-1" d="M522.45,80.91c-2.79,0-6.84-2.43-6.84-6.57a6.93,6.93,0,0,1,6.93-6.93c4.77,0,6.75,3.51,6.75,6.84C529.29,79.11,525.15,80.91,522.45,80.91Zm-4.32-24.3c0-8-1.17-29.43-1.71-44.91v-.27c0-3.69,3-5.58,5.94-5.58s6.12,2,6.12,5.85c0,10.53-1.71,35.64-1.71,44.19v1.26c0,3.42-2.25,5.13-4.41,5.13s-4.23-1.62-4.23-4.77Z"/></g></g></svg>