<svg xmlns="http://www.w3.org/2000/svg" viewBox="0 0 308.16 74.52"><defs><style>.cls-1{fill:#fff;}</style></defs><title>section_link_command</title><g id="レイヤー_2" data-name="レイヤー 2"><g id="title"><path class="cls-1" d="M39.15,63c-9.54.54-24.3.72-33.48.72A5.38,5.38,0,0,1,0,58.23a5.12,5.12,0,0,1,5.4-5.31h.27c5,.18,11.88.27,18.18.27,5.67,0,11-.09,14-.27a4.73,4.73,0,0,0,4.59-4.68c.18-2.88.18-6.84.18-10.44,0-3,0-5.85-.09-7.92-.18-4.41-4.23-4.41-10.44-4.41-7.83,0-18.18.45-25.74.81H5.94c-3.87,0-5.94-2.52-5.94-5s1.89-4.86,5.85-5c7.38-.36,18.09-.54,26.82-.54,3.06,0,5.85,0,8.19.09C50.4,16,53.55,21.69,53.55,28c0,18.81-.09,22-.09,22.86C53.28,60.21,46,62.64,39.15,63Z"/><path class="cls-1" d="M125,58.68a6,6,0,0,1-5.76,6,5.38,5.38,0,0,1-4.5-2.7c-3.15-4.77-13.23-13.86-20.34-17.19a3.94,3.94,0,0,1-2.52-3.69A5.39,5.39,0,0,1,97.38,36c1.44,0,4,.45,13.59,6.84,3.6-2.16,18.18-12.42,18.18-14.94,0-.45-.36-.81-1.44-.81h-3.78c-11.61,0-29.61.36-42,.81h-.27c-3.87,0-5.85-2.61-5.85-5.31,0-2.52,2-5.13,6-5.22,10.53-.18,25.38-.45,38.43-.45,4.32,0,8.46,0,12.15.09,6.12.09,11.61,4,11.61,8.73A7.91,7.91,0,0,1,141.84,31c-5.67,6.48-14.58,13.5-22.32,18.54C124.74,54.54,125,57.6,125,58.68Z"/><path class="cls-1" d="M179.82,31.77a32.53,32.53,0,0,0-12.42-6.93,4.36,4.36,0,0,1-3.33-4.32A5.54,5.54,0,0,1,169.74,15c2.88,0,12.33,3.69,17.46,7.56a5.64,5.64,0,0,1,2.43,4.59c0,3.24-2.7,6.39-5.85,6.39A5.52,5.52,0,0,1,179.82,31.77Zm-6.75,37.71a5.85,5.85,0,0,1-5.85-5.94c0-2.43,1.53-4.95,5-5.67,17.91-3.87,35.1-21.24,44.1-38.61a5.27,5.27,0,0,1,4.86-3.06,5.43,5.43,0,0,1,5.58,5.31,8.06,8.06,0,0,1-1.08,3.69C205.56,61.65,176.31,69.48,173.07,69.48Z"/><path class="cls-1" d="M273.42,68c.09,4.14-2.79,6.48-5.76,6.48-2.7,0-5.31-1.89-5.31-5.67v-.36c.45-10.08.72-30,.72-45.54,0-6.84-.09-12.78-.18-16.74C262.8,2.52,265.68,1,268.2,1c2.7,0,5.4,1.71,5.4,5.13V6.3c-.09,4.23-.09,11.79-.18,20.34,2.07,0,16.74,2.7,22.59,7.74a5.7,5.7,0,0,1,2.07,4.41c0,3.06-2.43,6-5.4,6a5.27,5.27,0,0,1-3.15-1.17c-3.6-2.7-11.52-5.94-16.2-7C273.33,64.44,273.42,67.14,273.42,68ZM293.22,21a32.34,32.34,0,0,0-7.47-4.86c-1.89-.72-2.7-1.89-2.7-3.15a4.54,4.54,0,0,1,4.59-4.14c.81,0,12.24,3.33,12.24,8.55,0,2.43-2.07,4.77-4.23,4.77A3.28,3.28,0,0,1,293.22,21Zm8.46-9.18a34.33,34.33,0,0,0-7.47-4.5c-2-.63-2.79-1.89-2.79-3.24a4.36,4.36,0,0,1,4.41-4c2.61,0,9.27,3.42,10.8,4.77a4.42,4.42,0,0,1,1.53,3.33c0,2.43-2,4.77-4.14,4.77A3.32,3.32,0,0,1,301.68,11.79Z"/></g></g></svg>