<svg xmlns="http://www.w3.org/2000/svg" viewBox="0 0 574.74 82.62"><defs><style>.cls-1{fill:#fff;}</style></defs><title>section_link_forstreamer</title><g id="レイヤー_2" data-name="レイヤー 2"><g id="title"><path class="cls-1" d="M33.93,13.05,26.28,13,26,20.34l4.95.18a6.07,6.07,0,0,1,5.49,6c.09,3.78.09,8,.09,12.6,0,10-.09,21.33-.18,31.14A7.76,7.76,0,0,1,29,78.39c-3.33.27-7.29.45-11,.45-11.07,0-16.2-.09-16.56-8.1-.18-5.22-.27-11.34-.27-17.64,0-9,.09-18.27.18-25.65,0-4.59,3.06-6.66,6.48-6.93l3.69-.18c-.09-2.61-.18-5-.18-7.38l-7,.09H4.23a4,4,0,1,1,.09-7.92H33.93a3.82,3.82,0,0,1,4,4,3.8,3.8,0,0,1-3.87,4ZM10.8,27.18c-1.71.09-2.34.72-2.34,2.07-.09,1.71-.09,2.52-.09,15.57,2.52-3.78,3.51-10.44,3.69-17.64Zm17.82,21c-.36,0-.72.09-1.17.09-7.29,0-7.29-5.22-7.29-15.66,0-1.8.09-3.6.09-5.49h-2.7C17,42.66,13.14,49.05,9,51.93v3.69H28.62ZM9.09,62.91c0,2,.09,4,.18,5.85,0,2.07,2,2.07,10.44,2.07,6.93,0,8.64,0,8.64-2.34.09-1.8.18-3.69.18-5.58Zm11.34-50H17.55c0,2.34.09,4.77.09,7.29h2.7Zm5,14.31c0,13.5,0,14.31,2.61,14.31a5.94,5.94,0,0,0,1.26-.09c0-5.22,0-8.64-.09-12.33,0-1.17-.54-1.8-2.07-1.89ZM45.36,13.86a4.3,4.3,0,0,1-4.68-4.32,4.35,4.35,0,0,1,4.68-4.32c3.15-.09,6.84-.09,10.53-.09,2.7,0,5.4,0,7.83.09,6.21.18,9.72,3.51,9.9,10.17.09,2.25.09,5.4.09,8.37,0,8.46-.36,15.39-10,15.66H52.92c-2.43,0-3.06,1.35-3.15,2.61-.09,3.15-.18,6.66-.18,10.35,0,4.41.09,9,.18,13.32,0,3.33,2.34,3.78,8.37,3.78,7.56,0,10.26-2.07,10.26-8.37a4.45,4.45,0,0,1,4.68-4.77c1.35,0,5.4.45,5.4,5.4,0,11.79-6.39,17-20.52,17-11.52,0-17-2.34-17.1-11.16-.09-4.41-.09-8.73-.09-13.05,0-5.22,0-10.44.18-15.75C41,35,43.11,30.69,50.4,30.6c2.43,0,5.85.09,8.82.09,5,0,5.31-.09,5.31-7.56,0-7.65-.09-9.36-3.06-9.36H57c-3.69,0-7.56,0-11.52.09Z"/><path class="cls-1" d="M91.17,76.86l.81-40c-5.49,6.84-7.47,7.92-9.81,7.92a4.72,4.72,0,0,1-4.86-4.5A5.17,5.17,0,0,1,79,36.72a80.91,80.91,0,0,0,20-32,4.44,4.44,0,0,1,4.5-3.24c2.79,0,5.76,2.07,5.76,4.95,0,2.7-5.13,12-7.2,15.48l-1.08,55a4.72,4.72,0,0,1-5,4.77A4.63,4.63,0,0,1,91.17,77Zm18.09-51.21a4.33,4.33,0,1,1,0-8.64h45.81a4.33,4.33,0,1,1,0,8.64ZM145,79.56c-5.13.18-9.45.27-13.5.27s-8-.09-12.6-.27c-4.23-.18-7.83-3.06-7.92-7.38-.09-1.89-.09-3.69-.09-5.4,0-2.34,0-4.59.09-6.84.09-3.78,3.15-6.93,8.19-7.11,4-.18,7.47-.18,10.89-.18,4.77,0,9.36.09,14.85.18,5.76.09,8.55,3.42,8.64,7.29.09,2.07.09,4.14.09,6.21s0,4.14-.09,6.12C153.45,77,149.85,79.38,145,79.56ZM116.55,13.23c-3.06,0-4.59-2.07-4.59-4.05S113.49,5,116.55,5h30.6a4.15,4.15,0,0,1,4.5,4.05,4.17,4.17,0,0,1-4.5,4.14Zm.27,35.55c-3.06,0-4.68-2-4.68-4s1.62-4,4.68-4h30.33c3,0,4.5,2,4.5,4s-1.53,4-4.5,4Zm0-11.52c-3,0-4.5-2-4.5-4s1.53-4,4.5-4h30.33c3,0,4.5,2,4.5,4s-1.53,4-4.5,4Zm26.91,28.8c0-1,0-2-.09-3.24,0-2.43-2.07-2.43-12.15-2.43-2.79,0-5.4,0-8.37.18-2.7.18-2.7,1.71-2.7,5.49,0,.9.09,1.89.09,3.24.18,2.34,2.07,2.43,11.34,2.43,9.63,0,11.79,0,11.79-2.43C143.73,68,143.73,67.05,143.73,66.06Z"/><path class="cls-1" d="M236.34,36.63,213,36.36c-2.52,2-5,4-7.65,5.85,1.89,0,3.78-.09,5.67-.09,3.33,0,6.57.09,9.27.27,6.12.36,9.09,4.41,9.27,7.83.18,2.88.27,6.48.27,10.17,0,3.33-.09,6.57-.27,9.36-.36,5-4.05,9-9.9,9.45-3.42.27-7.11.45-10.8.45-4.32,0-8.55-.18-12.24-.45-6.48-.36-9.63-3.87-10-9.18-.09-2-.18-4.32-.18-6.75,0-3.33.09-6.84.27-9.9-7.83,4-17.46,8-20,8a4.66,4.66,0,0,1-4.68-4.77,5.13,5.13,0,0,1,4-5,110.65,110.65,0,0,0,32.76-15.3l-28.71.27h-.09c-3.42,0-4.95-2-4.95-4.14a4.86,4.86,0,0,1,5-4.77l23.76.09-.09-7.92L178.2,20c-3.42,0-4.86-2.07-4.86-4.23a4.68,4.68,0,0,1,4.86-4.68l15.66.09V4.41c0-3,2.43-4.32,4.95-4.32s5,1.44,5,4.32v6.66h11.88a4.58,4.58,0,0,1,4.68,4.68v.54a104.15,104.15,0,0,0,6.66-9.45,4.31,4.31,0,0,1,3.69-2.16,5.83,5.83,0,0,1,5.58,5.4,3.78,3.78,0,0,1-.72,2.34,108.79,108.79,0,0,1-13,15.39l13.68-.09a4.61,4.61,0,0,1,4.77,4.68c0,2.16-1.53,4.23-4.68,4.23ZM195.93,63.9c0,1.08.09,2.16.09,3.33.09,3,1,3.69,8.55,3.69,3.51,0,7-.18,10.26-.18h1.62c3,0,3.69-2.25,3.69-6.84Zm24.12-7.83c0-5.4-.18-5.67-10.62-5.67-3.33,0-6.75,0-9.54.09-3.78.09-3.87,3.6-3.87,5.58ZM203.85,20l-.09,7.83h5.85a95.29,95.29,0,0,0,7.83-8.1,5.24,5.24,0,0,1-1.71.27Z"/><path class="cls-1" d="M321.66,66.69v.18c0,6.84-4.41,13.68-17.19,13.68-5.76,0-11.43-.63-11.43-5.85a4.61,4.61,0,0,1,4.68-4.77A5.94,5.94,0,0,1,299,70a35.71,35.71,0,0,0,5.85.72c3.6,0,6.3-1.17,6.3-4.86,0-26.46-.09-30.06-.36-37.26-.18-4.14-1.44-5.49-5.94-5.58-6.48-.09-12.78-.18-19-.18S273.51,23,267.3,23c-4.95.09-6.21,1.62-6.3,5.67-.18,8.19-.27,16.2-.27,24.21V77.13c0,3.06-2.52,4.5-5,4.5s-5.13-1.53-5.13-4.41v-.09c.18-16.74,0-35.55.45-53.19.18-5.94,4.77-9.9,11.52-10l12.78-.18A64.26,64.26,0,0,0,277.83,3.6c.36-2.25,2.7-3.33,5.22-3.33,3,0,6.12,1.53,6.12,4.5,0,2.25-2.25,7.11-3.15,8.91,7.92,0,15.93.09,23.85.27,5.31.18,11.16,4.23,11.25,10.71.18,10.08.27,17.73.36,27.9Zm-27.54-4.5c-2.61.09-5.85.18-9,.18s-6.21-.09-8.73-.18c-4.41-.27-7.29-4-7.38-8.46,0-1.89-.09-4.59-.09-7.29s.09-5.67.09-7.92c.09-3.78,2.52-7.65,7.38-7.92,2.43-.18,5.67-.18,9-.18s6.57,0,9.18.18c3.42.18,7.92,2.7,8.1,7.29.09,2.25.18,5.13.18,8s-.09,5.67-.18,7.74A8.79,8.79,0,0,1,294.12,62.19Zm-.54-14.85c0-2.43,0-5-.09-6.48,0-2.07-1.08-2.25-8.1-2.25-2,0-4,0-5.4.09-2.25.09-2.25,1.62-2.25,6.93,0,2.34,0,4.68.09,6.12.09,2.16,1.8,2.16,8.19,2.16,4.41,0,7.29-.09,7.47-2.25C293.58,50.67,293.58,49.05,293.58,47.34Z"/><path class="cls-1" d="M350.73,71.82a5.28,5.28,0,0,1-4.68-3c-3.87-7.38-4.95-15.12-4.95-22.32,0-8.37,1.53-16,2-21.42.45-5,1-7.92,1.17-11.79a4.82,4.82,0,0,1,4.95-4.77,4.76,4.76,0,0,1,4.95,4.95c0,2.79-.81,7.29-1.44,11.88-.81,5.67-2.88,11.79-2.88,18.9,0,.36,0,5.67.81,5.67.27,0,.54-.27.81-1.17,1.62-5,3.6-5.85,5.13-5.85a4.17,4.17,0,0,1,4.05,4.14,4.29,4.29,0,0,1-.36,1.8c-1.08,2.52-4.14,9.72-4.14,15.48,0,.54.09,1.26.09,2.07A5.35,5.35,0,0,1,350.73,71.82Zm41.85-49.23c.45-.09,5.31-1.26,6-1.26a5,5,0,0,1,5.22,4.59c0,1.89-1.44,3.78-5,4.59l-6.48,1.35.36,8.28c.09,1.44.09,2.79.09,4.14,0,15.93-4.95,28-18,37.17a6,6,0,0,1-3.42,1.17,5.33,5.33,0,0,1-5.31-5,5.05,5.05,0,0,1,2.61-4.14c10.62-6.84,14.4-16.92,14.4-31v-2l-.27-7a78.13,78.13,0,0,1-10.08.72c-4.14,0-9-.18-9-4.86,0-2.34,1.8-4.68,5.22-4.68a5.54,5.54,0,0,1,1.17.09,26.5,26.5,0,0,0,4,.27,76.59,76.59,0,0,0,8.64-.63V21.06c0-4.41-.72-6-1.08-9,0-.36-.09-.63-.09-.9a4.64,4.64,0,0,1,4.95-4.86c6.12,0,6.39,5.94,6.39,10.71,0,1.26-.09,2.61-.18,4.14Z"/><path class="cls-1" d="M408.15,39.06a6.86,6.86,0,0,1,1.08-3.42,23.74,23.74,0,0,0,3.15-12.33,3.94,3.94,0,0,1,4.14-4.23c.72,0,4.5.18,4.5,5.13,0,6-2.43,19.35-8.46,19.35A4.38,4.38,0,0,1,408.15,39.06Zm14-33.3c0-3.15,2.34-4.59,4.77-4.59s5,1.53,5,4.59v9.18a4.74,4.74,0,0,1,1.62-.36c2.79,0,8.73,6.21,8.73,9.09a4.44,4.44,0,0,1-4.41,4.23A3.12,3.12,0,0,1,435,26a21.36,21.36,0,0,0-3.06-4.59V76.86c0,2.88-2.43,4.32-4.86,4.32s-4.86-1.44-4.86-4.32Zm18.45,30.06c-2.79,0-4.05-1.71-4.05-3.42a3.81,3.81,0,0,1,4.05-3.78l18.36.09V25.2l-11.7.09c-2.61,0-3.87-1.62-3.87-3.24s1.26-3.24,3.87-3.24l11.7.09-.09-3.42H443.7c-2.79,0-4.23-1.8-4.23-3.6s1.44-3.6,4.14-3.6h15.3V4.59c0-3.06,2.52-4.59,4.95-4.59s5,1.53,5,4.59V8.28h16.47c2.79,0,4.14,1.8,4.14,3.6s-1.35,3.6-4.14,3.6H468.81V18.9l12.06-.09c2.52,0,3.78,1.62,3.78,3.24s-1.26,3.24-3.78,3.24l-12.06-.09v3.51l19.53-.09a3.61,3.61,0,1,1,0,7.2Zm33.93,30.51H453.24c0,3.87.09,7.74.18,11.25v.18a4.22,4.22,0,0,1-4.5,4.23,4.57,4.57,0,0,1-4.86-4.41c0-4.86-.09-10.08-.09-15.21s.09-10.35.09-15c.09-4.86,2.16-8.1,8.91-8.37,3.42-.18,7.11-.18,10.89-.18s7.47,0,10.8.18c6,.18,8.91,3,9,7.92,0,1.26.09,8.55.18,11.43.09,1.53.09,3.87.09,6.21v6.21c0,5.13-3.24,10.44-12.24,10.44-6.84,0-9.27-1.71-9.27-5.13a4,4,0,0,1,4.05-4.23,3.69,3.69,0,0,1,1,.09,18.71,18.71,0,0,0,3.51.45c2.25,0,3.51-1,3.6-4ZM453.24,56.07v4h21.42c0-1.35-.09-2.61-.09-4Zm21.06-8c-.18-2.07-.18-2.34-10.8-2.34-8.28,0-10.08,0-10.08,2.34l-.09,1.71h21.06Z"/><path class="cls-1" d="M514.53,29.61l-16,.09c-3,0-4.32-1.89-4.32-3.78a4.11,4.11,0,0,1,4.32-4.14H510V17h-8.37c-3.06,0-4.5-1.89-4.5-3.78A4.29,4.29,0,0,1,501.66,9l8.28.09-.09-4V5a4.51,4.51,0,0,1,4.77-4.5c2.43,0,4.86,1.53,4.86,4.5v.09l-.09,4L527.67,9a3.9,3.9,0,0,1,4.23,4A3.92,3.92,0,0,1,527.67,17h-8.28l-.09,4.77H530a4,4,0,1,1,0,7.92Zm4.86,34.11.09,13.14c0,3-2.43,4.5-4.86,4.5s-4.77-1.44-4.77-4.5l.09-13.14-9.63.09c-3.06,0-4.5-1.89-4.5-3.78a4.29,4.29,0,0,1,4.5-4.23H510V50.31l-11.52.09c-3,0-4.32-1.89-4.32-3.78a4.11,4.11,0,0,1,4.32-4.14h7.83a3.36,3.36,0,0,1-1.71-1.8,25.43,25.43,0,0,0-2.79-4.77,3.18,3.18,0,0,1-.54-1.71c0-2.07,2.52-3.6,4.77-3.6,3.42,0,6.75,5.58,6.75,7.56a5.09,5.09,0,0,1-3.6,4.41h5.58a4.79,4.79,0,0,1,.9-2.61,31.89,31.89,0,0,0,3.78-7.65,3,3,0,0,1,3.06-2.07c2.52,0,5.49,1.89,5.49,4.32s-4,7.47-4.41,7.92h6.3a4,4,0,1,1,0,7.92l-10.62-.09V55.8H529a4,4,0,1,1,0,8Zm27.81,15A4.72,4.72,0,0,1,544,77.49a4.79,4.79,0,0,1-4.77,3.6,4.67,4.67,0,0,1-4.86-4.86s0-53.46.36-63.09c.18-4.86,3.15-8.1,9.45-8.37,3-.09,6.57-.18,10.08-.18,2.25,0,4.41,0,6.39.09,6.12.18,9.63,4,9.63,9,0,9.09-1.89,15.75-12.51,15.75-7.65,0-10.35-2-10.35-5.4,0-2.16,1.35-4.23,3.87-4.23a5.1,5.1,0,0,1,1.62.27,14.22,14.22,0,0,0,3.87.63c2,0,3.6-.72,3.6-4.86,0-3.06-1.8-3.06-8.55-3.06s-7.56.45-7.74,3.24c-.09,2.16-.09,8.46-.09,16.11,3.15-.09,8.46-.18,12.87-.18,8,0,13.32.27,13.32,7.65,0,5.31-3,16.29-6.84,23.31a39.93,39.93,0,0,0,9.18,6.57,4.11,4.11,0,0,1,2.25,3.69,5.61,5.61,0,0,1-5.4,5.49c-4.32,0-10.8-7.38-11.34-7.92C555,74.25,550,78.75,547.2,78.75Zm-1-31.68a4.29,4.29,0,0,1,4.32-4.23,3.69,3.69,0,0,1,3.69,2.88,44,44,0,0,0,3.15,8.82,43.88,43.88,0,0,0,3.06-13.14,1.33,1.33,0,0,0-1.35-1.26c-3.42.18-11.07.18-15.12.18,0,11.16.09,23.31.09,30.15l.9-.54a31.74,31.74,0,0,0,7.47-6.75C547.47,55.26,546.21,48.51,546.21,47.07Z"/></g></g></svg>