<svg xmlns="http://www.w3.org/2000/svg" viewBox="0 0 317.52 70.2"><defs><style>.cls-1{fill:#fff;}</style></defs><title>section_link_discord</title><g id="レイヤー_2" data-name="レイヤー 2"><g id="title"><path class="cls-1" d="M20.61,70.11c-5.76,0-19.35-.09-20.16-13C.18,52.83,0,45.63,0,38.16c0-9.81.27-20.07.54-24.84C1.26.36,10.44,0,22.05,0c2.79,0,5.49.09,6.84.18C50,1.62,61.65,16.2,61.65,34.92c0,20.16-10.8,33.84-33.57,35.1C26.91,70.11,23.58,70.11,20.61,70.11Zm7.74-58.86H28c-.45,0-5-.18-8.37-.18-2.25,0-7.2,0-7.56,4-.27,3.78-.54,14.13-.54,23.67a152.51,152.51,0,0,0,.54,16.29c.54,4.14,4.77,4.14,11.34,4.14,9.18,0,26.1-.81,26.1-24.3C49.5,21.24,41.13,11.25,28.35,11.25Z"/><path class="cls-1" d="M79.2,14c-1.35,0-6.84-.27-6.84-6.93A6.79,6.79,0,0,1,79.29.27a7.15,7.15,0,0,1,7,6.66A7.12,7.12,0,0,1,79.2,14Zm.09,56.16c-2.79,0-5.49-1.71-5.49-5.22,0-7.38.09-17.46.09-25.56,0-4.05,0-7.65-.09-10.08s1.71-5.22,5.49-5.22c2.7,0,5.49,1.62,5.49,4.95v.18c-.09,3.69-.18,10.71-.18,18.18,0,6.12.09,12.51.18,17.37V65C84.78,68.49,82,70.2,79.29,70.2Z"/><path class="cls-1" d="M110.25,70.2c-9,0-16-4.86-16-9.54a5.17,5.17,0,0,1,5.22-4.95,4.89,4.89,0,0,1,4,2.16c1,1.35,3.15,2.7,6.57,2.7,5.13,0,5.67-3.6,5.67-4,0-1.44-1-3.06-3.24-4.14S106.83,49.23,104,48c-5.76-2.52-8.37-7.11-8.37-11.61,0-6.39,5.31-12.6,14.22-12.6,7.47,0,14.22,3.42,14.22,8a5.23,5.23,0,0,1-5,5.13,5.9,5.9,0,0,1-4.23-2.07,6.52,6.52,0,0,0-5-2c-2.52,0-3.87,1.44-3.87,3a4.38,4.38,0,0,0,2.61,3.6c2.34,1.26,5.94,2.88,8.73,4.41,6.48,3.42,9.18,8.19,9.18,12.6C126.45,63.63,119.52,70.2,110.25,70.2Z"/><path class="cls-1" d="M155.7,70.2c-12.33,0-23.13-8.28-23.13-22.86,0-11.25,7.92-23.67,23.49-23.67,8.91,0,16.56,5.31,16.56,10a5.55,5.55,0,0,1-5.49,5.4,5.44,5.44,0,0,1-4.23-2.16,10,10,0,0,0-7.65-3.15c-7.2,0-12.33,5.94-12.33,13.32,0,5,2.79,12.87,12.33,12.87,3.69,0,7.29-1.35,9.18-3.87a5.16,5.16,0,0,1,4.14-2.16c3,0,5.85,2.61,5.85,5.49C174.42,63.54,166.68,70.2,155.7,70.2Z"/><path class="cls-1" d="M180.36,47c0-13.41,10-23.13,23.22-23.13S226.71,33.57,226.71,47c0,13.86-9.9,23.22-23.13,23.22S180.36,60.84,180.36,47Zm36,0c0-8.46-5.76-13.68-12.78-13.68S190.71,38.52,190.71,47s5.85,13.59,12.87,13.59S216.36,55.35,216.36,47Z"/><path class="cls-1" d="M248.85,29.34c2.52-2.43,6.84-5.13,10.89-5.13a4.82,4.82,0,0,1,4.95,4.95c0,2.52-1.8,5.22-5.94,5.76-4.95.63-10.53,5.13-10.8,10.44-.09,1.35-.09,2.7-.09,4.23,0,3.24.09,7.56.36,14.94.18,3.78-2.79,5.31-5.31,5.31a5.12,5.12,0,0,1-5.4-5.13v-.18c.27-10.26.45-16.11.45-21.42,0-4.32-.09-8.28-.27-14v-.18c0-3.15,2.88-4.59,5.4-4.59s5.31,1.44,5.31,4.77c0,.36,0,.45.18.45C248.58,29.52,248.67,29.52,248.85,29.34Z"/><path class="cls-1" d="M311.49,69.66c-3.51,0-4.59-3.06-5.31-5.13-.09-.18-.18-.36-.36-.36s-.18,0-.36.18A19.71,19.71,0,0,1,291.78,70c-12.69,0-22.32-9.18-22.32-23,0-13.32,9.63-22.95,22.32-22.95a20.06,20.06,0,0,1,12.15,4.23.31.31,0,0,1,.18.09.19.19,0,0,0,.18-.18c0-10.35-.18-18.63-.27-22.32A4.87,4.87,0,0,1,309.24.54a5.14,5.14,0,0,1,5.31,5.31v.54c-.27,3-.36,8.82-.36,15.84,0,32.31,0,33.84,2.7,39a5.92,5.92,0,0,1,.63,2.7A6.1,6.1,0,0,1,311.49,69.66ZM304.2,47c0-8.46-5.49-13.59-12.24-13.59-6.57,0-12.15,5.13-12.15,13.59s5.58,13.5,12.15,13.5C298.71,60.48,304.2,55.35,304.2,47Z"/></g></g></svg>