<svg xmlns="http://www.w3.org/2000/svg" viewBox="0 0 634.05 81"><defs><style>.cls-1{fill:#000;}</style></defs><title>section_about_2_1</title><g id="レイヤー_2" data-name="レイヤー 2"><g id="title"><path class="cls-1" d="M3.6,18.45a6.05,6.05,0,0,1-1.53-3.78c0-2.88,2.79-5,5.67-5a5.78,5.78,0,0,1,4.68,2.52A92.58,92.58,0,0,1,22.59,32.4c14.4-10,17-10.35,18.18-10.35a5.22,5.22,0,0,1,5.13,5.31c0,2.07-1.17,4.14-3.87,5.58C14.4,47.07,9.9,54.9,9.9,59s4,7.47,12.33,7.47a51.89,51.89,0,0,0,16-2.79,8,8,0,0,1,2.7-.54,5.2,5.2,0,0,1,5.31,5.31c0,2.61-1.71,5.31-5.58,6.39a65.43,65.43,0,0,1-16,2C7.74,76.86,0,68.76,0,60,0,49.5,10.35,41.49,14,38.7,11.7,31.77,7.56,23.31,3.6,18.45Zm45,3.42A31.55,31.55,0,0,0,42.48,16,3.71,3.71,0,0,1,40.41,13a4.09,4.09,0,0,1,4.23-3.69c2.16,0,11,5.31,11,9.54a4.77,4.77,0,0,1-4.41,4.59A3,3,0,0,1,48.6,21.87Zm9.54-7.29a30.69,30.69,0,0,0-6.3-5.49A3.54,3.54,0,0,1,49.68,6a4.06,4.06,0,0,1,4.14-3.69c3.15,0,9.36,5.31,10.26,6.48a4.19,4.19,0,0,1,1,2.7A4.61,4.61,0,0,1,60.75,16,3.27,3.27,0,0,1,58.14,14.58Z"/><path class="cls-1" d="M109.44,75c-17.37,0-30.06-7.11-30.06-13.23a5.5,5.5,0,0,1,5.31-5.58,6.2,6.2,0,0,1,4.41,2.07C93.24,62.37,99.18,64,105.84,64a70.67,70.67,0,0,0,18.27-2.88,10.09,10.09,0,0,1,2.16-.27,5.27,5.27,0,0,1,5.49,5.4,6.58,6.58,0,0,1-5,6.21A59.49,59.49,0,0,1,109.44,75Zm9.72-45.81a6.43,6.43,0,0,1-1.8-.18,68.06,68.06,0,0,0-13.77-1.35,69.54,69.54,0,0,0-12.24,1.08,10,10,0,0,1-1.53.18,4.78,4.78,0,0,1-5.13-4.77c0-2.61,2.07-5.49,6.39-6.12a96,96,0,0,1,14-1c13,0,19.71,1.44,19.71,7C124.74,26.73,122.76,29.16,119.16,29.16Z"/><path class="cls-1" d="M186.39,27.09a85.9,85.9,0,0,1-13.68,1.26c-4.05,0-6.21-2.7-6.21-5.22s1.89-4.77,5.94-4.77c.36,0,.72.09,1.17.09,1.26.09,2.52.18,3.87.18a58.59,58.59,0,0,0,8.91-.72c0-2.25-.09-4.41-.09-6.3s.09-3.51.09-4.86c.09-3.78,2.43-5.31,5-5.31,2.7,0,5.49,1.89,5.49,4.86v.36c-.18,3-.36,6.12-.45,9.45L201.24,15a9,9,0,0,1,1.44-.18,4.7,4.7,0,0,1,4.95,4.59c0,2.25-1.71,4.5-5.76,5.13-2.07.27-4,.63-5.76.9,0,2.88,0,5.76.09,8.64l5.67-1.8a8.77,8.77,0,0,1,2.52-.45c3.15,0,5.22,2.25,5.22,4.59,0,2.07-1.62,4.32-5.4,5.4-2.79.81-5.31,1.44-7.65,2.07.18,2.79.27,5.49.54,7.92.18,2.16.54,5.13.72,8.1,11.25,4.41,13.59,8.46,13.59,11.61a5.06,5.06,0,0,1-4.86,5.31,6.87,6.87,0,0,1-4.41-2,41.18,41.18,0,0,0-5.31-4C194.4,76.14,187.83,81,180,81s-15.75-5-15.75-11.79c0-9.54,12.69-12.15,19.17-12.15a30.54,30.54,0,0,1,5,.36c-.09-1.53-.18-3.15-.36-4.77-.18-2-.27-4.23-.45-6.66A54.79,54.79,0,0,1,177,47.07c-4.59,0-9.81-.27-9.81-5.4a4.89,4.89,0,0,1,5.22-5,12.3,12.3,0,0,1,1.71.18,21.76,21.76,0,0,0,3.78.27,47.78,47.78,0,0,0,9.09-.9c-.18-3.06-.27-6.12-.36-9.18Zm-5.67,38.34c-5.85,0-7.65,2-7.65,3.6,0,2.34,3.42,3.06,5.76,3.06,3.87,0,7.83-2.07,8.64-4.86l.18-.72A23.63,23.63,0,0,0,180.72,65.43Z"/><path class="cls-1" d="M272.43,16.38c10.8-3.15,18.54-5.22,25-5.22,4.77,0,6.66,3.15,6.66,6,0,3.24-2,5.22-7.74,5.22a17.37,17.37,0,0,1-2.07-.09H293a36.18,36.18,0,0,0-11.88,2.52c-5.85,2.07-14.4,10.53-14.4,21.6,0,9.63,6.66,18.63,19.53,18.63h1c5.94-.18,8.37,3.15,8.37,5.94s-2.43,5.58-7.74,5.58c-19.35,0-30.78-13.5-30.78-28.8a31.86,31.86,0,0,1,5.94-18.45,4,4,0,0,0,.81-1.35c0-.18-.09-.27-.36-.27a4.52,4.52,0,0,0-1.26.27c-4.23,1.08-6.48,3.06-9.81,4.41-6.21,2.61-8.46,3.06-10,3.06a5.84,5.84,0,0,1-6-5.94,5.67,5.67,0,0,1,4.86-5.58C245.16,23.22,258,20.43,272.43,16.38ZM296.82,45.9a36.69,36.69,0,0,0-7.38-5.31c-1.89-.81-2.61-2.07-2.61-3.33a4.38,4.38,0,0,1,4.5-4c2.61,0,9.45,4.14,11.16,5.94a4.68,4.68,0,0,1,1.35,3.15c0,2.52-2.16,5-4.41,5A3.56,3.56,0,0,1,296.82,45.9Zm9.81-8.73a36.54,36.54,0,0,0-7.56-5c-1.89-.72-2.7-2-2.7-3.24a4.64,4.64,0,0,1,4.68-4.23c1.17,0,12.33,3.6,12.33,8.82,0,2.43-2.07,4.77-4.23,4.77A3.46,3.46,0,0,1,306.63,37.17Z"/><path class="cls-1" d="M352.44,24a10.47,10.47,0,0,1,2.43-.36,4.68,4.68,0,0,1,4.68,4.86c0,4.68-4.32,5.13-8.46,5.58l-1.26,10.35a25.14,25.14,0,0,0,3-.54,6.12,6.12,0,0,1,1.71-.27,5.1,5.1,0,0,1,5,5.13c0,3.6-3.42,5.22-10.62,5.76,0,1.17-.09,2.25-.09,3.33s.09,2.16.09,3.15c.27,6.12,3.87,9.09,7.92,9.09,5.94,0,11.25-6.12,11.25-12.6,0-4.14-2.16-7.92-5.4-11.52a5.34,5.34,0,0,1-1.62-3.6c0-2.61,2.52-4.68,5.31-4.68a5.64,5.64,0,0,1,4.41,2.16c4.86,5.67,7.47,11.52,7.47,17.64a22,22,0,0,1-22,22.23c-5.13,0-16.56-2.07-16.56-20.07,0-1.62,0-3.42.09-5.22-5.13-.45-11.16-1-11.16-6.48,0-2.43,1.8-4.77,4.23-4.77a4.08,4.08,0,0,1,1.44.27,25.38,25.38,0,0,0,6.21,1.17c.36-3.51.72-7.11,1.17-10.71-7.74-1.08-11-2.7-11-6.57,0-2.61,2.07-5.22,4.68-5.22a3.53,3.53,0,0,1,1.62.36,30.26,30.26,0,0,0,5.76,1.62l.27-2.52c.54-5.58.63-9.27,1-13.32.27-3.24,2.43-4.68,4.68-4.68a5.41,5.41,0,0,1,5.58,5.22c0,4.23-1,7.47-1.62,12.78Z"/><path class="cls-1" d="M452.61,12.42c6.66.45,10.8,4.86,11,10.44s.27,14.76.27,23.49c0,7.47-.09,14.67-.18,19.17-.27,8.55-4.68,12.33-14.22,12.78-3.51.18-7.92.27-12.33.27-22.23,0-29.25-.18-29.61-12.87-.18-5.67-.27-13.86-.27-22.05,0-7.29.09-14.67.27-20.25.27-6.48,3.33-10.71,11.61-11,1.44-.09,3.78-.09,6.39-.18a64,64,0,0,0,2.16-9C428,1,430.38,0,432.81,0c3,0,6.12,1.53,6.12,4.5,0,1.71-1.26,4.77-2.52,7.65C442.8,12.15,449.28,12.15,452.61,12.42Zm1.62,27.45H416.7v9.54h37.53Zm-.09-8.82c0-1.71-.09-3.24-.18-4.59-.18-5.58-2.79-5.58-18.09-5.58-5.13,0-10.26.09-13.05.27-5.94.36-6,2.07-6,9.9ZM416.79,58.23c0,2.07,0,4,.09,5.49.27,5.4,3.51,5.58,19.35,5.58,4.32,0,8.73-.09,11.7-.27,6-.36,6.21-2.79,6.21-10.8Z"/><path class="cls-1" d="M512.73,5.76c0-3.06,2.43-4.5,4.95-4.5s5,1.53,5,4.5v13.5c5.85,0,11.7.18,16.65.36,7.47.27,11.61,4.77,11.79,10.26s.36,12,.36,18.36-.09,12.51-.27,17.28c-.27,8.19-4.5,12.69-15.48,13-6.39.18-12.69.27-18.81.27-25.47,0-31.5-.09-32-12.87-.18-5.76-.27-12-.27-18.18q0-8.51.27-17c.18-5.94,4-10.8,12.51-11.07,4.23-.18,9.63-.18,15.21-.27Zm.09,46.35H494.19c0,4.41.09,8.55.27,12,.27,5.58,2,5.58,18.36,5.58Zm-.09-23.94-11.61.18c-5.22.09-6.57,1.62-6.66,4.95-.09,3.15-.18,6.57-.18,10.17h18.45Zm10,23.94-.09,17.46c4.23,0,8.46,0,12.06-.09,5.13-.09,6.66-1.89,6.84-5.67.09-3.6.27-7.65.27-11.7Zm19.08-8.64c0-3.6-.18-7-.27-10.08-.18-3.78-3.24-4.95-6.3-5-4-.18-8.28-.27-12.51-.27V43.47Z"/><path class="cls-1" d="M571,53.28a101.83,101.83,0,0,1,.54-10.53c1.08-10.35,3.24-19.62,4-25,.54-3.51,2.88-5,5.13-5a4.83,4.83,0,0,1,5,4.59,3.38,3.38,0,0,1-.09.9c-.72,3.78-3.51,14.49-4.77,23.67a65.5,65.5,0,0,0-.81,8.82,20.27,20.27,0,0,0,.27,3.42q.13.54.27.54t.27-.27c1.26-3.15,2.79-4.77,4.77-4.77A4.41,4.41,0,0,1,589.77,54a3.35,3.35,0,0,1-.45,1.8c-4.86,8.64-5.13,11.79-5.13,15.12,0,5.76-4.59,6-5,6C572.85,77,571,62.55,571,53.28ZM617.58,72.9c-10.44,0-20.52-4-20.52-9.63a5.27,5.27,0,0,1,5-5.31,5.66,5.66,0,0,1,3.69,1.53C608,61.38,611.37,62,615.06,62a65,65,0,0,0,12.33-1.53A9.92,9.92,0,0,1,629,60.3a4.83,4.83,0,0,1,5,5.13,6,6,0,0,1-4.59,6A48.82,48.82,0,0,1,617.58,72.9ZM625.77,31a9,9,0,0,1-1.44-.18,44.29,44.29,0,0,0-9.81-1.08A42.23,42.23,0,0,0,604.17,31a6.19,6.19,0,0,1-1.17.18,4.94,4.94,0,0,1-4.68-4.95c0-2,1.26-4.05,4.41-4.77a56.74,56.74,0,0,1,13.32-1.62c10.53,0,14.58,2,14.58,6.39A4.71,4.71,0,0,1,625.77,31Z"/></g></g></svg>