<svg xmlns="http://www.w3.org/2000/svg" viewBox="0 0 514.09 82.08"><defs><style>.cls-1{fill:#efc900;}</style></defs><title>section_2_rule</title><g id="レイヤー_2" data-name="レイヤー 2"><g id="title"><path class="cls-1" d="M36.27,57.87A143.91,143.91,0,0,1,7.83,79.56L0,71.64,41.22,21.51H4.32V9.81H58.68L56.79,5.49l5.4-3.33a42.8,42.8,0,0,1,6.48,8.37L63,14c-1.71,6.93-6.39,20.16-18.45,34.92,4.23,1.71,13.14,5.49,26.28,16.92L58.14,78.93ZM71.55,12.51l-4.5-9.27L72.45,0a28.58,28.58,0,0,1,6.66,8Z"/><path class="cls-1" d="M77.94,69.93l13-59.4,19,3.69c-.72,5-5.49,32.94-19.44,59.31Zm82.53-5.76c-17.91,10.26-38,13-42.3,13.5v-72h18.45v50.4l20-3.42Z"/><path class="cls-1" d="M209.74,67.29a74,74,0,0,1-20.1,3.15c-11.69,0-15.47-4.34-15.47-4.34a10.36,10.36,0,0,1-2-6.37c0-3.85,1.75-9.24,8.33-15.82l-6.93-6.31,3.15-8.26h-11.2V18.84h15.19l3.64-9.45,12.88,4.06a32,32,0,0,1-2,5.39h11v7.84c1-.49,2-1.05,3.08-1.54l5.88,6.79L201.13,44.4c3,2.52,4.69,4.27,4.69,4.27l-9.18,9.38,12.82.28Zm-20.8-37.95c-1.12,1.47-2.31,3-3.71,4.62,1.54.77,3,1.54,4.48,2.38,3.22-2.24,7.08-4.55,11.49-7Zm2,24-5,4.48,10.22.21Z"/><path class="cls-1" d="M284.05,70.83c-11.07,8-22.14,11.25-30.87,11.25-6.57,0-11.7-1.89-14.58-4.86,0,0-7.47-7.92-7.47-37.44a265.32,265.32,0,0,1,3.24-38.61H251V65l29.25-5.76Z"/><path class="cls-1" d="M320.14,27.9c-3.69,9.72-8.82,20.79-15.75,29.43l-9.72-4.14,8.19-25.29h-8V14.4h12.33L311.5,1.17,326.89,6c-.45,1.62-1.26,4.5-2.34,8.37h10.71V27.9Zm-4.59,50.31c-2.7-5.76-3.78-10.62-3.78-14.67,0-11.43,8-18.81,15.93-18.81a27.52,27.52,0,0,1,7.38.9l1.71.54L336.7,33h15.66a83.61,83.61,0,0,1,2.43,19v.72a101.42,101.42,0,0,1,9.27,4.32l-4.5,11.16-6.39-1.89c-.81,3.78-2,7.65-3.33,11.88ZM335.8,61.56A14.53,14.53,0,0,0,330.31,60c-2,0-3.6.9-3.6,4v.81h9.09Zm9.27-39.24,6.21-9c4.41,1.62,13.05,5.58,19.62,11.88L360.73,37.44Z"/><path class="cls-1" d="M408.61,68.13c-5.13,5.31-11.61,8-17.28,8a13.25,13.25,0,0,1-10.26-4.23s-7.38-8.1-7.38-28.08c0-8.64,1.44-19.44,5.31-32.67h14.13V59.31l11.43-2.88ZM438.31,65,421,25.65l13.05-6.48s10.62,9.9,23,37.71Z"/><path class="cls-1" d="M467.83,53.1V6.84h16.38V53.1Zm0,26V62.82h16.38V79.11Z"/><path class="cls-1" d="M497.71,53.1V6.84h16.38V53.1Zm0,26V62.82h16.38V79.11Z"/></g></g></svg>