<svg xmlns="http://www.w3.org/2000/svg" viewBox="0 0 446.77 99.61"><defs><style>.cls-1{fill:#fff;}</style></defs><title>section_link_wiki</title><g id="レイヤー_2" data-name="レイヤー 2"><g id="レイヤー_1-2" data-name="レイヤー 1"><path class="cls-1" d="M0,56.06a6.76,6.76,0,0,1,3.41-5.57c10.58-6.83,16-14.22,21.38-24.22,1.48-2.73,3.75-4,5.91-4a6.89,6.89,0,0,1,6.94,6.59c0,6.14-21,33.66-30.82,33.66A6.78,6.78,0,0,1,0,56.06Zm14.1,42.3C10,98.36,7.85,95,7.85,91.65s1.93-6.48,6-6.6c3.41-.11,6.94-.22,10.46-.45,4.1-7.39,10.58-25,13.42-37.18.8-3.42,3.53-4.89,6.48-4.89,3.87,0,7.85,2.61,7.85,6.48,0,3-7.39,22.74-13.19,34.34,10.46-1,20.92-2.5,30.24-4.1a86.33,86.33,0,0,0-7.39-8.52,6,6,0,0,1-1.93-4.21c0-3.18,3-5.8,6.48-5.8a7.08,7.08,0,0,1,4.89,2.05c10,9.32,19.67,22.17,19.67,28.42,0,4.33-4.09,7.51-7.84,7.51a6.28,6.28,0,0,1-6.14-4.78c-.46-1.48-1.14-3-1.71-4.43A433,433,0,0,1,14.1,98.36ZM36.27,19h-.34a5.75,5.75,0,0,1-6-5.91,6,6,0,0,1,6.14-6.14l18.64-.46h.91c6.26,0,10.46,2.16,12.74,7C74.71,27,82.67,36.84,95.86,45.14c2.61,1.71,3.75,3.87,3.75,6.14a7.87,7.87,0,0,1-7.73,7.62c-7.28,0-24.11-17.62-33.55-37.41-1-2-2.73-3.07-5.57-3.07h-.45Z"/><path class="cls-1" d="M169.43,34.45c2.73,34.68,15.92,50.49,18.76,50.49,1.59,0,3.07-2.5,4.66-10a5.83,5.83,0,0,1,6-4.77c3.52,0,7.28,2.5,7.28,6.59,0,3.41-5,22.86-17.52,22.86-5.23,0-10.34-3.3-13.64-7.85-11-15-16.26-35.82-18.42-57.31l-46.17-.11c-4.2,0-6.37-3-6.37-5.91a6,6,0,0,1,6.37-6h45.26c-.23-5.69-.34-11.37-.34-16.83C155.33,1.93,158.62,0,162,0S169,2.05,169,6.14v.23c-.11,3.52-.11,7.28-.11,11.14V22.4h28.2a5.75,5.75,0,0,1,6,5.91,5.78,5.78,0,0,1-6,6ZM139.52,57.08v18c5.23-1.59,9.89-3.19,13.87-4.78a5.84,5.84,0,0,1,2.28-.45,5.65,5.65,0,0,1,5.46,5.68,5.89,5.89,0,0,1-4,5.35c-24.56,10-44.12,12.85-44.8,12.85-4.44,0-6.94-3.07-6.94-6.26,0-2.73,1.93-5.34,6-6,5.23-.8,10.8-1.94,16.14-3.19l-.11-21.15-10.69.11a6,6,0,1,1,0-11.93h32.41a5.68,5.68,0,0,1,6,5.91,5.71,5.71,0,0,1-6,6Zm42.87-39.34a34.73,34.73,0,0,0-7.85-6.37,5.16,5.16,0,0,1-2.73-4.55,5.34,5.34,0,0,1,5.35-5.34c2.16,0,15.35,6.14,15.35,12.28a6.11,6.11,0,0,1-5.8,6A5.72,5.72,0,0,1,182.39,17.74Z"/><path class="cls-1" d="M215.59,14.55c0-4.43,4-6.7,8-6.7,3.64,0,7.17,1.93,7.85,5.68,2.84,16,8.19,49.12,10.58,61,.34,1.82,1,2.61,1.59,2.61s1.36-.9,1.7-2.5c2.16-9.32,7.85-42.18,10.81-57.19A11.46,11.46,0,0,1,267.67,8c5.23,0,10.46,3.07,11.6,8.87,2.5,12.73,7.28,44,9.67,57.08.34,1.71.79,2.28,1.13,2.28,1.37,0,1.94-2.85,14-62.89.68-3.75,4-5.45,7.39-5.45,4,0,8.19,2.38,8.19,6.7,0,2.62-7.17,34.69-15.35,68-1.94,8.08-7.85,12.51-13.76,12.51-5.57,0-11.14-4.09-13.31-13-3-11.94-7.84-45-9.09-54.47-.12-.91-.34-1.25-.46-1.25s-.45.34-.57,1.14c-1.47,10.23-6.82,42.87-9.89,54.58-2.16,8.64-8.3,13.07-14.33,13.07S231,90.74,229,82.1C219.46,37.07,215.59,17.17,215.59,14.55Z"/><path class="cls-1" d="M339.88,24.79c-1.71,0-8.64-.34-8.64-8.76,0-6.25,5.34-8.64,8.75-8.64a9,9,0,0,1,8.87,8.42A9,9,0,0,1,339.88,24.79ZM340,95.74c-3.52,0-6.93-2.16-6.93-6.59,0-9.33.11-22.06.11-32.3,0-5.11,0-9.66-.11-12.73s2.16-6.6,6.93-6.6c3.42,0,6.94,2,6.94,6.26V44c-.11,4.67-.23,13.54-.23,23,0,7.74.12,15.81.23,22v.23C346.93,93.58,343.41,95.74,340,95.74Z"/><path class="cls-1" d="M410.27,95.29a7.38,7.38,0,0,1-5.12-2.39c-3.3-3.41-15.81-17.51-20.58-23.31a3.29,3.29,0,0,0-2.16-.57c-1.82,0-2.28.46-2.28,1.25-.11,2.73-.22,4-.22,7.17,0,2.27,0,5.57.22,11.37a6.26,6.26,0,0,1-6.59,6.59c-3.41,0-6.94-2.16-6.94-6.48v-.34c.46-12.74.57-31.73.57-48.1,0-10.92,0-20.69-.23-26.72-.11-5.12,6-5.91,7.05-5.91,3.41,0,6.71,1.82,6.71,5.8v.22c-.34,12.17-.45,40.82-.45,40.82,0,1.48,1.13,1.6,1.82,1.6a4.8,4.8,0,0,0,2.61-.91c6.6-4.55,13.76-11.26,19.9-16.15a6.5,6.5,0,0,1,4.21-1.59c3.86,0,7.16,3.86,7.16,7.73a6.13,6.13,0,0,1-2.61,5c-6.6,4.78-9.9,7.39-15.92,11.26-.8.57-1.25,1-1.25,1.48s.34.79.91,1.36c5.8,5.92,15.8,15,18.64,18.2a7.74,7.74,0,0,1,2.16,5.11A7.83,7.83,0,0,1,410.27,95.29Z"/><path class="cls-1" d="M437.78,24.79c-1.7,0-8.64-.34-8.64-8.76,0-6.25,5.35-8.64,8.76-8.64a9,9,0,0,1,8.87,8.42A9,9,0,0,1,437.78,24.79Zm.12,70.95c-3.53,0-6.94-2.16-6.94-6.59,0-9.33.12-22.06.12-32.3,0-5.11,0-9.66-.12-12.73s2.16-6.6,6.94-6.6c3.41,0,6.93,2,6.93,6.26V44c-.11,4.67-.22,13.54-.22,23,0,7.74.11,15.81.22,22v.23C444.83,93.58,441.31,95.74,437.9,95.74Z"/></g></g></svg>