<svg xmlns="http://www.w3.org/2000/svg" viewBox="0 0 669.78 82.89"><defs><style>.cls-1{fill:#fff;}</style></defs><title>section_now_title</title><g id="レイヤー_2" data-name="レイヤー 2"><g id="title"><path class="cls-1" d="M28.35,35.73c-3.24,0-4.86-2.16-4.86-4.41A4.52,4.52,0,0,1,24,29.16C11.79,41.58,8.28,43.29,5.58,43.29A5.51,5.51,0,0,1,0,37.89,5.76,5.76,0,0,1,3.06,33c9.36-5.85,20.25-17.28,26.73-25.38A11.33,11.33,0,0,1,38.61,3c3.24,0,6.57,1.53,9.63,4.68A158.32,158.32,0,0,0,75.33,30.24c2.34,1.53,3.33,3.33,3.33,5,0,3-2.88,5.67-6.12,5.67a6.6,6.6,0,0,1-3.87-1.26C61.38,34.47,50,23.4,41.94,14.76c-1.08-1.08-1.8-1.71-2.52-1.71s-1.35.54-2.25,1.62C33.93,18.54,30,23,25.74,27.36a5.87,5.87,0,0,1,2.61-.54H51a4.49,4.49,0,0,1,4.86,4.5c0,2.16-1.62,4.41-4.86,4.41Zm4.32,39.51c0-1.62,1-3.24,3.51-4.41C46.44,66.24,53,54.54,53,52.83c0-.45-.36-.81-1-.81-6.21.09-32.22.09-35.55.18h-.18a4.31,4.31,0,0,1-4.59-4.5,4.56,4.56,0,0,1,4.5-4.77c3-.09,17.55-.09,28.44-.09H55.26C62,43,65,45.54,65,49.86c0,10.62-18.45,30.42-26.37,30.42C35.28,80.28,32.67,77.76,32.67,75.24Z"/><path class="cls-1" d="M133.65,18.27c2.25-.09,4.32-.18,6.12-.18h13.5c4.23.09,6.3,2.79,6.3,5.49,0,2.52-1.89,5-5.58,5h-.63c-6.3-.45-8.46-.54-14-.63-1.8,0-3.78,0-5.85.09.09,2.7.18,5.31.18,7.65,0,1.17.18,2.88.27,4.77A20.77,20.77,0,0,1,137,51.66C137,64.08,126.27,82,118,82c-3.06,0-5.58-2-5.58-4.59,0-1.71,1.08-3.69,3.87-5.67a30.21,30.21,0,0,0,9.18-11.16,12.35,12.35,0,0,1-4.68.9c-7.56,0-12.33-7.11-12.33-14.13,0-10.17,9.36-12.87,14.94-12.87h.72l-.18-5.85c-7.29.72-14.49,1.71-19,2.43-6.57,1-10.44,2.16-13.14,2.61a5.13,5.13,0,0,1-1.17.09,4.9,4.9,0,0,1-4.95-5c0-2.34,1.62-4.77,5.31-5.4,4.14-.72,22.68-3.33,32.76-4.32l.09-.9v-1c0-4.59-.54-5-.54-7.65a4.9,4.9,0,0,1,5.13-5.31c1.44,0,5.67.45,5.67,5.67,0,2.25-.27,5.76-.45,7.92Zm-6.84,28.89v-.45c-1.71-3.69-4-3.69-4.59-3.69-3.15,0-5.22,2-5.22,4.77a4.75,4.75,0,0,0,4.86,5C126.45,52.74,126.81,48,126.81,47.16Z"/><path class="cls-1" d="M208.89,77.13c-5.4-10.44-12.69-21.87-18.81-29-2.88-3.42-4.41-6.75-4.41-10.08,0-3.69,1.8-7.38,5.49-11.25,6-6.3,12.69-13,18.18-20.16a5.6,5.6,0,0,1,4.41-2.34,6.18,6.18,0,0,1,6,5.85,5.25,5.25,0,0,1-1.35,3.51C214.29,18.63,204.3,26.82,199,32c-2,2-3,3.69-3,5.4a7.31,7.31,0,0,0,1.89,4.23c9.27,11.61,16.74,19.62,21.06,29.07a6.5,6.5,0,0,1-5.85,9.09A4.6,4.6,0,0,1,208.89,77.13Zm10.17-42.48a34.62,34.62,0,0,0-5.94-6.12,3.53,3.53,0,0,1-1.89-3c0-1.89,2-3.6,4.23-3.6,2.79,0,10.8,6,10.8,9.72a4.87,4.87,0,0,1-4.5,4.68A3.19,3.19,0,0,1,219.06,34.65Zm9.81-7a31.14,31.14,0,0,0-6.12-5.76,3.71,3.71,0,0,1-2.07-3.06,4.09,4.09,0,0,1,4.23-3.69c2.52,0,11.16,5.49,11.16,9.45a4.87,4.87,0,0,1-4.5,4.68A3.29,3.29,0,0,1,228.87,27.63Z"/><path class="cls-1" d="M319.32,35.64l-14.13-.27c5.85,3.78,11.52,5.85,18.63,7.65a4.14,4.14,0,0,1,3.42,4.14,5.24,5.24,0,0,1-5.31,5.22c-2.7,0-15.21-4.59-28.62-17.19H282.87c-10.53,12.15-27.81,19.35-30.69,19.35a4.84,4.84,0,0,1-5-4.59c0-1.62,1.17-3.33,3.78-4.23,9.09-3,15.3-6.3,19.89-10.35l-15.57.27h-.09a4.47,4.47,0,0,1-4.77-4.5c0-2.25,1.53-4.41,4.77-4.41h.09l22.41.18A50.74,50.74,0,0,0,280.17,22c-2.79.27-13.86,1.35-21,1.35-3.42,0-5-2.34-5-4.59a4.06,4.06,0,0,1,4.32-4.14h3.15c2.52,0,5,0,7.65-.09a110.68,110.68,0,0,0,6.3-11.34A4.94,4.94,0,0,1,280.35,0c2.61,0,5.22,1.8,5.22,4.5,0,1.89-1.26,3.69-5.4,9.54,6.3-.36,12.69-.9,18.63-1.53-1.17-.63-3-1.71-3-3.51,0-2,2-3.87,4.59-3.87,3.87,0,17.55,8,17.55,14a4.89,4.89,0,0,1-4.68,4.95c-1.44,0-3-.81-4.32-2.61-.81-1.08-1.71-2.07-2.61-3.06-4.86.81-10.35,1.62-16,2.34a3.25,3.25,0,0,1,.54,1.8c0,1.44-1.89,4.14-2,4.32l30.42-.18a4.46,4.46,0,1,1,.09,8.91ZM263,81.72c-3.15,0-6.75-.09-6.75-4.23a4.39,4.39,0,0,1,4.5-4.5h2.43c20.88,0,34.38-7.2,44.1-17.1a5.49,5.49,0,0,1,3.87-1.8,5.13,5.13,0,0,1,4.95,5,4.69,4.69,0,0,1-1.71,3.6C302.13,73.8,284.31,81.72,263,81.72Zm1.71-10.8c-3.06,0-4.59-2-4.59-4a3.9,3.9,0,0,1,3.69-3.87A54.81,54.81,0,0,0,296.1,47.52a5.22,5.22,0,0,1,3.69-1.62,4.93,4.93,0,0,1,4.86,4.68A4.53,4.53,0,0,1,303,54C288.09,67.32,269.1,70.92,264.69,70.92Zm.36-10.62c-2.79,0-4.41-1.89-4.41-3.78a3.82,3.82,0,0,1,3.06-3.6,46.45,46.45,0,0,0,22-13.59,5.13,5.13,0,0,1,3.69-1.8,4.58,4.58,0,0,1,4.59,4.41,4.71,4.71,0,0,1-1.53,3.33C281,56.52,268.38,60.3,265.05,60.3Z"/><path class="cls-1" d="M353.16,28.71l-.09.54c-.36,11.61-2.7,34.65-17.28,49.23a5.75,5.75,0,0,1-4.14,1.8c-2.79,0-5.31-2.25-5.31-4.77a4.53,4.53,0,0,1,1.53-3.24c13.77-13.14,14.94-32.85,15.39-43.38-2.61.09-5.22.18-8,.18h-.09a4.27,4.27,0,0,1-4.41-4.5,4.48,4.48,0,0,1,4.5-4.68l8.37-.18c.09-2.07.09-4.23.09-6.3s0-4.23-.09-6V7.2c0-2.88,2.43-4.41,4.95-4.41s5.13,1.53,5.22,4.59V9.54q0,4.86-.27,10c2,0,4,.09,6.12.09,5.67,0,9.45,3.6,9.54,9.72v2.43c0,8.37-.36,22.05-1.62,30.15-1.62,10.8-7.29,15.66-14.94,15.66-8.1,0-9.72-2.88-9.72-5.85,0-2.34,1.44-4.59,3.87-4.59a4.58,4.58,0,0,1,1.8.36,8.54,8.54,0,0,0,2.88.54c3.78,0,8.1-1.62,8.1-32.13,0-1.71-.09-3.15-.09-4.41a2.65,2.65,0,0,0-2.79-2.79ZM395.73,77.4c-1.89.09-3.87.18-5.85.18-8.64,0-15.48-.18-15.75-10.17-.18-6.57-.27-13.86-.27-21.15s.09-14.58.27-21.15c.18-5.22,3.87-9,9.81-9.36,2-.09,4-.18,6-.18s4,.09,5.76.18c6.48.36,10.17,3.87,10.35,9.36.27,6.3.36,13.59.36,21s-.09,14.85-.36,21.33C405.9,73.17,401.94,77,395.73,77.4Zm-5.67-9c5.85,0,6.12-1,6.21-3.6.18-5.49.27-12.15.27-18.72s-.09-13-.27-18.18c-.09-3.51-1.62-3.69-6.21-3.69s-6.12.54-6.3,3.69c-.27,5.13-.45,11.34-.45,17.64,0,6.84.18,13.68.45,19.26C383.85,68.31,385.38,68.4,390.06,68.4Z"/><path class="cls-1" d="M443,56.16c0,4.77.45,11.7,9.36,11.7,5.85,0,13.77-3.42,21.69-9.54a6.11,6.11,0,0,1,3.87-1.44,5.85,5.85,0,0,1,3.15,10.44C473,73.89,462,78.21,452.61,78.21c-10.53,0-19.08-5.4-19.53-18.81-.09-1.35-.09-2.79-.09-4,0-7.65.81-14.4,1.17-22.41.27-4.95.63-12.24.63-17.64V12.87c-.09-4,2.88-5.49,5.49-5.49,2.88,0,5.76,1.8,5.76,5.13,0,2.43-.54,11.25-1.26,20.34C444.24,41.22,443,48.51,443,56.16Z"/><path class="cls-1" d="M524.07,78.66c-7.74,0-16.2-4.86-16.2-12.24,0-5.76,5.67-11.61,18.63-11.61a45.82,45.82,0,0,1,6.93.54c0-1.8,0-3.42-.09-4.77-1-17.19-2-25.38-2-37.26,0-2.16,0-6.93,5.49-6.93,2.7,0,5.4,1.71,5.4,5v.36c-.27,4.23-.27,8.1-.27,12.15a16.68,16.68,0,0,0,8.64-2.16,6.25,6.25,0,0,1,3.15-.9,6.09,6.09,0,0,1,6,5.67c0,7.11-16.74,7.2-17.55,7.2.27,7.38.54,19.8.54,21.24v2.7c14.13,4.77,14.76,10.62,14.76,12.33,0,3.24-2.34,6-5.31,6a7.26,7.26,0,0,1-5-2.61,29.51,29.51,0,0,0-6-4.95C538.56,74.07,531.81,78.66,524.07,78.66Zm.9-15.39c-.45,0-7.47,0-7.47,2.88,0,1.71,2.52,3.24,6.39,3.24,3.51,0,7-1.62,8.28-5A25.89,25.89,0,0,0,525,63.27Z"/><path class="cls-1" d="M612.81,82.89a5.41,5.41,0,0,1-5.58-5.13,5.12,5.12,0,0,1,2.34-4.05c12.24-8.73,18-20.16,18-29.7,0-2.52-.54-12.51-8.55-12.51a12.67,12.67,0,0,0-6.75,2.16c-.63.45-7.38,4.5-10.8,4.5a5.27,5.27,0,0,1-5.58-5.31,6,6,0,0,1,4.41-5.67c2.34-.81,5-1.71,7.47-2.79A28.89,28.89,0,0,1,619,22.05c12.24,0,19.17,7.83,19.17,21.51,0,13.23-7.83,28-21.24,37.89A6.79,6.79,0,0,1,612.81,82.89ZM625.68,17.1c-2.07,0-10.26-1.89-17.91-6.21a4.88,4.88,0,0,1-2.7-4.23,4.81,4.81,0,0,1,5.13-4.59,7.58,7.58,0,0,1,3.24.72,58.41,58.41,0,0,0,13.41,3.78c3.42.63,4.77,2.7,4.77,4.77A5.89,5.89,0,0,1,625.68,17.1Z"/><path class="cls-1" d="M662.76,76.14a6.89,6.89,0,0,1-6.93-6.75,7,7,0,0,1,7-7c.81,0,6.93.09,6.93,6.93C669.78,74.25,665.46,76.14,662.76,76.14Zm-4.59-22.77V51.21c0-7.74-.81-23.31-1.26-37.89v-.27a5.47,5.47,0,0,1,5.76-5.58,5.76,5.76,0,0,1,6,5.85c0,10.44-1.26,29.7-1.26,37.89v1.44a5,5,0,0,1-4.86,5.49A4.4,4.4,0,0,1,658.17,53.37Z"/></g></g></svg>