<svg xmlns="http://www.w3.org/2000/svg" viewBox="0 0 391.41 76.14"><defs><style>.cls-1{fill:#000;}</style></defs><title>section_about_3_1</title><g id="レイヤー_2" data-name="レイヤー 2"><g id="title"><path class="cls-1" d="M33,69.12c.09-6.75.45-20,.54-30.24A133.51,133.51,0,0,1,11.16,56a10.7,10.7,0,0,1-5.31,1.71A5.52,5.52,0,0,1,0,52.38a5.08,5.08,0,0,1,3.15-4.5C19,40.32,36.36,23.76,46.44,7.92a5.89,5.89,0,0,1,5-3.06A5.37,5.37,0,0,1,56.79,10c0,1.44,0,3-12.78,17.91-.18,5.94-.27,17.73-.27,27.72,0,5.31,0,10.08.09,13.23V69a5.76,5.76,0,0,1-5.67,6.12c-2.61,0-5.13-1.89-5.13-5.94Z"/><path class="cls-1" d="M133.56,52.38c-5.76-4.86-11.16-10-17.82-15a10.21,10.21,0,0,0-5.94-2.43,7.22,7.22,0,0,0-4.59,1.8C93.69,46.08,90.72,48,87.66,48A5.76,5.76,0,0,1,82,42.3c0-2.07,1.26-4.14,4.32-5.4,2.16-.81,7.29-3.78,13.41-8.1a17.07,17.07,0,0,1,10.08-3.6c4,0,7.74,1.62,11.25,4.23,7.2,5.31,24.48,18,33.93,24.21a4.77,4.77,0,0,1,2.34,4,6.66,6.66,0,0,1-6.39,6.39C148.68,64.08,146,62.82,133.56,52.38Zm2.07-20.88a33.72,33.72,0,0,0-7.29-5.31c-1.89-.81-2.61-2-2.61-3.24,0-2.07,2.07-4.05,4.59-4.05,2.25,0,12.24,4.23,12.24,9,0,2.52-2.16,5-4.32,5A3.56,3.56,0,0,1,135.63,31.5Zm9.18-9.09a35.9,35.9,0,0,0-7.47-4.95c-1.89-.72-2.7-2-2.7-3.24A4.62,4.62,0,0,1,139.23,10c.63,0,12.42,3.15,12.42,8.64,0,2.52-2.16,4.95-4.32,4.95A3.46,3.46,0,0,1,144.81,22.41Z"/><path class="cls-1" d="M187.74,32.94A32.53,32.53,0,0,0,175.32,26,4.36,4.36,0,0,1,172,21.69a5.54,5.54,0,0,1,5.67-5.49c2.88,0,12.33,3.69,17.46,7.56a5.64,5.64,0,0,1,2.43,4.59c0,3.24-2.7,6.39-5.85,6.39A5.52,5.52,0,0,1,187.74,32.94ZM181,70.65a5.85,5.85,0,0,1-5.85-5.94c0-2.43,1.53-4.95,5-5.67,17.91-3.87,35.1-21.24,44.1-38.61a5.27,5.27,0,0,1,4.86-3.06,5.43,5.43,0,0,1,5.58,5.31,8.06,8.06,0,0,1-1.08,3.69C213.48,62.82,184.23,70.65,181,70.65Z"/><path class="cls-1" d="M282,69.21c.09,4.14-2.79,6.48-5.76,6.48-2.7,0-5.31-1.89-5.31-5.67v-.36c.45-10.08.72-30,.72-45.54,0-6.84-.09-12.78-.18-16.74-.09-3.69,2.79-5.22,5.31-5.22,2.7,0,5.4,1.71,5.4,5.13v.18l-.27,20.34c2.07,0,16.74,2.7,22.59,7.74A5.7,5.7,0,0,1,306.54,40c0,3.06-2.43,6-5.4,6A5.27,5.27,0,0,1,298,44.82c-3.6-2.7-11.52-5.94-16.2-7C281.79,49.86,281.79,62.1,282,69.21Z"/><path class="cls-1" d="M365.58,20.43a10.47,10.47,0,0,1,2.43-.36,4.68,4.68,0,0,1,4.68,4.86c0,4.68-4.32,5.13-8.46,5.58L363,40.86a25.14,25.14,0,0,0,3-.54,6.12,6.12,0,0,1,1.71-.27,5.1,5.1,0,0,1,5,5.13c0,3.6-3.42,5.22-10.62,5.76,0,1.17-.09,2.25-.09,3.33s.09,2.16.09,3.15c.27,6.12,3.87,9.09,7.92,9.09,5.94,0,11.25-6.12,11.25-12.6,0-4.14-2.16-7.92-5.4-11.52a5.34,5.34,0,0,1-1.62-3.6c0-2.61,2.52-4.68,5.31-4.68a5.64,5.64,0,0,1,4.41,2.16c4.86,5.67,7.47,11.52,7.47,17.64a22,22,0,0,1-22,22.23c-5.13,0-16.56-2.07-16.56-20.07,0-1.62,0-3.42.09-5.22-5.13-.45-11.16-1-11.16-6.48,0-2.43,1.8-4.77,4.23-4.77a4.08,4.08,0,0,1,1.44.27A25.38,25.38,0,0,0,353.7,41c.36-3.51.72-7.11,1.17-10.71-7.74-1.08-11-2.7-11-6.57,0-2.61,2.07-5.22,4.68-5.22a3.53,3.53,0,0,1,1.62.36A30.26,30.26,0,0,0,356,20.52l.27-2.52c.54-5.58.63-9.27,1-13.32.27-3.24,2.43-4.68,4.68-4.68a5.41,5.41,0,0,1,5.58,5.22c0,4.23-1,7.47-1.62,12.78Z"/></g></g></svg>