<svg xmlns="http://www.w3.org/2000/svg" viewBox="0 0 699.39 75.06"><defs><style>.cls-1{fill:#fff;}</style></defs><title>section_fornoob_1</title><g id="レイヤー_2" data-name="レイヤー 2"><g id="title"><path class="cls-1" d="M7.74,74.52c-2.16,0-4.41-1.44-5.49-4.86A61.74,61.74,0,0,1,0,51.93,120.83,120.83,0,0,1,.81,38C2,27.18,4,17.28,4.32,11.52,4.59,7.65,7.11,6,9.54,6a5.05,5.05,0,0,1,5.31,4.86c0,.27-.09.54-.09.81-.63,4.05-2.16,11.52-3.33,19.17-1.08,7-2,13.68-2,16.92,0,1.53.18,2.07.36,2.07s.18-.27.36-.81c1.17-3.51,2.61-4.23,4.05-4.23,2,0,4,1.71,4,4.77a9.74,9.74,0,0,1-1.08,4c-2.79,5.85-4.14,12.24-4.14,15.3C12.69,74.52,8.19,74.52,7.74,74.52Zm51.12-57a7.36,7.36,0,0,1,1.89-.27,5.31,5.31,0,0,1,5.49,4.95c0,2-1.35,4-4.95,4.77l-5.85,1.44c.09,9.81.27,13.59,1.08,25.11a39.56,39.56,0,0,1,9.72,6.39,6.29,6.29,0,0,1,2.16,4.68c0,3.06-2.43,5.94-5.13,5.94a4.83,4.83,0,0,1-3.51-1.71A35.81,35.81,0,0,0,55,64.71,19.18,19.18,0,0,1,38.7,74.25c-7,0-14.31-4.5-14.31-11.79C24.39,55.89,30.78,50,41.58,50a29.3,29.3,0,0,1,5.58.54c-.36-4.14-.36-4.23-1-20.34a57.7,57.7,0,0,1-8.91.63c-5.13,0-9.54-.18-9.54-5a5,5,0,0,1,5.4-5,6.81,6.81,0,0,1,1.35.09,27.68,27.68,0,0,0,4.77.36,42.39,42.39,0,0,0,6.66-.54c-.09-3.33-.09-6.48-.09-9V8.91a4.69,4.69,0,0,1,4.95-4.68c2.43,0,4.86,1.44,4.86,4.14v.36c-.18,2.34-.27,5.85-.27,9.9ZM39.42,58.41c-4.32,0-6.21,1.8-6.21,3.6,0,2,2.7,2.88,5,2.88,3.42,0,7-1.8,8.1-5A20.32,20.32,0,0,0,39.42,58.41Z"/><path class="cls-1" d="M104.31,52.2c0,4.77.45,11.7,9.36,11.7,5.85,0,13.77-3.42,21.69-9.54a6.11,6.11,0,0,1,3.87-1.44,5.85,5.85,0,0,1,3.15,10.44c-8.1,6.57-19.08,10.89-28.35,10.89-10.53,0-19.08-5.4-19.53-18.81-.09-1.53-.09-3-.09-4.41,0-7.47.72-14.13,1.08-22,.27-4.95.63-12.24.63-17.64V8.91C96,5,99,3.42,101.61,3.42c2.88,0,5.76,1.8,5.76,5.13,0,2.43-.54,11.25-1.26,20.34C105.57,37.26,104.31,44.55,104.31,52.2Zm24-24A34.28,34.28,0,0,0,120.87,23c-1.89-.81-2.7-2.07-2.7-3.33,0-2.07,2.16-4.14,4.77-4.14,1.8,0,12.51,3.78,12.51,8.91,0,2.61-2.16,5-4.41,5A3.59,3.59,0,0,1,128.34,28.17Zm9.9-9.18a32.59,32.59,0,0,0-7.56-4.77c-2-.72-2.88-2-2.88-3.33,0-2.07,2.16-4.23,4.86-4.23,1,0,12.6,3.33,12.6,8.64,0,2.52-2.16,4.95-4.41,4.95A3.44,3.44,0,0,1,138.24,19Z"/><path class="cls-1" d="M200.43,46.35a4,4,0,0,1,1.8,3.33,5.13,5.13,0,0,1-4.86,5.13,5.57,5.57,0,0,1-3-1q-1.49,1.89-3,3.51c-4.68,5.13-9.09,7.29-12.87,7.29-6.84,0-11.34-7-11.34-15.57,0-7.56,4-15.39,10.17-21.33-2.16-7.2-3.51-13.77-3.51-15a4.58,4.58,0,0,1,4.77-4.77,5.66,5.66,0,0,1,5.76,5.49,47.44,47.44,0,0,0,1.08,8.37l1.08-.54a38.16,38.16,0,0,1,14.94-3.78,59.29,59.29,0,0,0,1-9.27V8.1a4.48,4.48,0,0,1,4.68-4.86A5.53,5.53,0,0,1,212.76,9a44.21,44.21,0,0,1-1.08,9.36c15.3,3.78,18.9,16.2,18.9,24,0,19.44-22.23,28-25.83,28-3.42,0-5.85-2.52-5.85-5.13,0-1.89,1.35-3.87,4.68-5,12.6-4,16.83-11.43,16.83-18.27,0-5.67-2.79-13-11-15.75-1.17,4-4.68,11.88-9.54,19.71Zm-19.8-10c-2.7,3.6-4.41,7.83-4.41,11.61,0,4.32,1.53,6.48,3.51,6.48,2.52,0,5.4-3.78,7.74-6.84A47,47,0,0,1,180.63,36.36Zm19-11a25.62,25.62,0,0,0-12,4.41,35.94,35.94,0,0,0,5.4,9.63A64.3,64.3,0,0,0,199.44,26Z"/><path class="cls-1" d="M282.42,13.32c10.8-3.15,18.54-5.22,25-5.22,4.77,0,6.66,3.15,6.66,6,0,3.24-2,5.22-7.74,5.22a17.37,17.37,0,0,1-2.07-.09H303a36.18,36.18,0,0,0-11.88,2.52c-5.85,2.07-14.4,10.53-14.4,21.6C276.75,53,283.41,62,296.28,62h1c5.94-.18,8.37,3.15,8.37,5.94s-2.43,5.58-7.74,5.58c-19.35,0-30.78-13.5-30.78-28.8a31.86,31.86,0,0,1,5.94-18.45,4,4,0,0,0,.81-1.35c0-.18-.09-.27-.36-.27a4.52,4.52,0,0,0-1.26.27C268,26,265.77,28,262.44,29.34c-6.21,2.61-8.46,3.06-10,3.06a5.84,5.84,0,0,1-6-5.94,5.67,5.67,0,0,1,4.86-5.58C255.15,20.16,268,17.37,282.42,13.32Z"/><path class="cls-1" d="M368.28,24.84c0,7.29-8.28,27.36-18.36,36.72a11.8,11.8,0,0,1-8,3.51c-6.3,0-13.5-7-13.5-18.09,0-14.76,12.87-33.75,36.81-33.75,18.36,0,30.33,12.51,30.33,27.36,0,23.13-24.3,30.87-29,30.87-3.78,0-6-2.52-6-5.13,0-2.25,1.62-4.5,5.22-5.31,14-3.24,19.44-12,19.44-21.06,0-8.37-5.67-17.28-18.27-18.54A4.54,4.54,0,0,1,368.28,24.84ZM338,46.08c0,3.87,1.71,7.74,4.32,7.74,4.23,0,14.31-16.83,15.39-28.89a7.18,7.18,0,0,1,.81-2.88C343.8,25.74,338,39.24,338,46.08Z"/><path class="cls-1" d="M438.48,32.4c-4.41,13.77-10.17,25.83-17.19,35.73a6.73,6.73,0,0,1-5.49,3.06c-3,0-5.58-2.07-5.58-5a7.16,7.16,0,0,1,2.07-4.59c6.12-6.84,11.43-16.29,15.48-27.72a53.43,53.43,0,0,1-9.9,1.35c-3.6,0-5.31-2.34-5.31-4.77a5.26,5.26,0,0,1,4.95-5.22c2.7-.27,5.49-.18,8.73-.45l4.14-.36A89,89,0,0,0,433,10.89a5.16,5.16,0,0,1,5.31-4.68c2.61,0,5.13,1.62,5.13,4.68A93.86,93.86,0,0,1,441,23.49l2-.18a8.24,8.24,0,0,1,1.44-.09c5.31,0,12.78,2.79,12.78,16.47,0,29.43-17,30.06-19.89,30.06-5.58,0-9.36-2.52-9.36-6a5,5,0,0,1,4.95-5.13,7.06,7.06,0,0,1,1.26.18,14.71,14.71,0,0,0,3.24.45c8.37,0,9.9-12.6,9.9-20,0-5-1.71-7.2-4.77-7.2h-.72Zm41,14.85a4.62,4.62,0,0,1-4.32-3c-2.16-4.86-5.67-11.43-12.15-14.94A3.7,3.7,0,0,1,460.89,26a4.6,4.6,0,0,1,4.68-4.41c5.67,0,19.62,13.41,19.62,20.07A5.74,5.74,0,0,1,479.52,47.25Z"/><path class="cls-1" d="M508.32,27.09c-4.95,0-12.24-1-12.24-6.66a4,4,0,0,1,4.14-4.32,8,8,0,0,1,2.7.54,19.73,19.73,0,0,0,6.57,1.08,29.43,29.43,0,0,0,4.77-.45,20.66,20.66,0,0,0,.18-3.33c0-1.62-.09-3.42-.27-5.94V7.74c0-2.79,2.43-4.23,5-4.23,3.78,0,5.67,2.16,5.67,7,0,1-.09,2.07-.18,3.15a16.51,16.51,0,0,0,2.16-1.17,5.21,5.21,0,0,1,2.7-.81,5,5,0,0,1,4.86,4.86c0,2.88-2.79,5.31-12.06,8.1A341.7,341.7,0,0,1,506,69.39a6.06,6.06,0,0,1-5.58,3.78,4.82,4.82,0,0,1-5-4.86,7.84,7.84,0,0,1,1-3.69,278.28,278.28,0,0,0,15.39-37.71C510.57,27,509.4,27.09,508.32,27.09Zm38.52,45.36c-11.34,0-21.6-4.77-21.6-10.35,0-3,2.25-5.67,5-5.67a5.17,5.17,0,0,1,3.78,1.71c2.79,2.79,5.67,3.51,9.72,3.51,2.61,0,5.85-.27,9.9-.54h.54c3.69,0,5.49,2.52,5.49,5C559.71,70.29,556.65,72.45,546.84,72.45Zm7.92-37.17a38.23,38.23,0,0,0-11.16-1.71,17.56,17.56,0,0,0-6.12.9,5,5,0,0,1-1.53.27,4.15,4.15,0,0,1-4.05-4.32c0-6.21,11.88-6.48,14-6.48,3.42,0,15.12.72,15.12,7.2a4.3,4.3,0,0,1-4.32,4.5A5.44,5.44,0,0,1,554.76,35.28Z"/><path class="cls-1" d="M623.88,51.3c-18.09-15.66-19.26-16.65-22-16.65-1.53,0-2.88.72-4.59,2.07-4.23,3.33-8.46,7.38-13.14,10.17a6.44,6.44,0,0,1-3.42,1c-3.33,0-6.21-2.79-6.21-5.67,0-1.8,1.08-3.69,3.69-5,1.71-.9,9-5.13,13.5-8.28,3.69-2.61,7-3.78,10.26-3.78,3.69,0,7.11,1.53,10.62,4.05,5.85,4.14,11.88,8.91,18.09,13.5a139.92,139.92,0,0,0,18.09,11.7,5.21,5.21,0,0,1,3,4.77,6.45,6.45,0,0,1-6.3,6.39C640.35,65.52,629.19,55.89,623.88,51.3Z"/><path class="cls-1" d="M692.55,75.06c-2.79,0-6.84-2.43-6.84-6.57a6.93,6.93,0,0,1,6.93-6.93c4.77,0,6.75,3.51,6.75,6.84C699.39,73.26,695.25,75.06,692.55,75.06Zm-4.32-24.3c0-8-1.17-29.43-1.71-44.91V5.58c0-3.69,3-5.58,5.94-5.58s6.12,2,6.12,5.85c0,10.53-1.71,35.64-1.71,44.19V51.3c0,3.42-2.25,5.13-4.41,5.13s-4.23-1.62-4.23-4.77Z"/></g></g></svg>