<svg xmlns="http://www.w3.org/2000/svg" viewBox="0 0 559.17 80.37"><defs><style>.cls-1{fill:#fff;}</style></defs><title>section_link_vote</title><g id="レイヤー_2" data-name="レイヤー 2"><g id="title"><path class="cls-1" d="M70.65,25.38c4.59,0,6.48,2.25,6.48,4.59,0,2.61-2.34,5.4-6.12,5.4h-.18c-5.22-.18-10.71-.27-16.2-.27v1.08c0,17.37-7.29,31.77-23.76,41.22a8.87,8.87,0,0,1-4.23,1.26A4.71,4.71,0,0,1,21.69,74a5.34,5.34,0,0,1,3.06-4.77c13.68-7.47,19.62-18.54,19.62-32.67V35.1c-4.32,0-8.64.09-12.87.18v12.6a5.09,5.09,0,0,1-5.31,5.31c-2.61,0-5.13-1.62-5.13-4.86V48c.18-3.42.27-7.83.27-12.42-5.4.18-10.53.27-15.3.54H5.58C1.8,36.09,0,33.75,0,31.41s1.8-4.86,5.4-4.95c5.13-.18,10.44-.36,15.84-.45-.09-3.87-.18-7.47-.36-10.35V15.3a5,5,0,0,1,5-5.31c2.43,0,4.95,1.71,5.13,5.31.18,2.79.27,6.48.36,10.53l13.05-.18c0-4.32-.09-8.28-.18-10.71,0-.45-.27-6.3,4.95-6.3,2.7,0,5.4,2.16,5.4,6.12V25.47c5.4-.09,10.8-.09,15.93-.09Z"/><path class="cls-1" d="M92.25,44.64c-3.69,0-5.49-2.43-5.49-5a5.32,5.32,0,0,1,5.49-5.4h56.34a5.18,5.18,0,1,1,0,10.35Z"/><path class="cls-1" d="M184.77,31c1.08-2.79,3.06-3.87,5-3.87a5.86,5.86,0,0,1,5.85,5.67c0,3.15-8.55,20.79-22.95,30.87A6.28,6.28,0,0,1,169,64.89a5.76,5.76,0,0,1-5.67-5.67,5.45,5.45,0,0,1,3-4.86C174.51,49.23,181.17,40.14,184.77,31Zm41.67,28c-2.61-8.37-11.16-19.53-16.83-24.48a4.52,4.52,0,0,1-1.71-3.42c0-2.43,2.34-4.68,5.31-4.68a6.94,6.94,0,0,1,4.59,1.89C228.69,37.89,238,50.76,238,56.7a6.47,6.47,0,0,1-6.3,6.48A5.4,5.4,0,0,1,226.44,59Zm-1.08-30.24a32.58,32.58,0,0,0-6.93-5c-1.8-.72-2.43-1.89-2.43-3.06,0-1.89,2-3.87,4.41-3.87,1.53,0,11.61,3.87,11.61,8.55a4.68,4.68,0,0,1-4.23,4.59A3.28,3.28,0,0,1,225.36,28.71Zm8.55-8.46A31.23,31.23,0,0,0,227,15.57c-1.8-.72-2.61-1.89-2.61-3.15a4.26,4.26,0,0,1,4.32-3.87c1.26,0,11.7,3.24,11.7,8.28,0,2.34-2,4.59-4,4.59A3.28,3.28,0,0,1,233.91,20.25Z"/><path class="cls-1" d="M252.09,44.64c-3.69,0-5.49-2.43-5.49-5a5.32,5.32,0,0,1,5.49-5.4h56.34a5.18,5.18,0,1,1,0,10.35Z"/><path class="cls-1" d="M369.54,53.73c-18.09-15.66-19.26-16.65-22.05-16.65-1.53,0-2.88.72-4.59,2.07-4.23,3.33-8.46,7.38-13.14,10.17a6.44,6.44,0,0,1-3.42,1c-3.33,0-6.21-2.79-6.21-5.67,0-1.8,1.08-3.69,3.69-5,1.71-.9,9-5.13,13.5-8.28,3.69-2.61,7-3.78,10.26-3.78,3.69,0,7.11,1.53,10.62,4.05,5.85,4.14,11.88,8.91,18.09,13.5a139.92,139.92,0,0,0,18.09,11.7,5.21,5.21,0,0,1,3,4.77,6.45,6.45,0,0,1-6.3,6.39C386,68,374.85,58.32,369.54,53.73Z"/><path class="cls-1" d="M410,50.4c-3.15,1.62-5.49,2.7-7.2,2.7a4.78,4.78,0,0,1-4.95-4.77,4.51,4.51,0,0,1,3-4.23c3.42-1.44,6.39-2.7,9.18-4V26.82l-6.57.09a4.39,4.39,0,0,1-4.59-4.59,4.36,4.36,0,0,1,4.59-4.5l6.57.09-.09-13A4.82,4.82,0,0,1,414.81,0a4.6,4.6,0,0,1,4.77,4.86l-.09,13.05,4.5-.09h.09a4.34,4.34,0,0,1,4.5,4.5,4.36,4.36,0,0,1-4.5,4.59H424l-4.5-.09v8.37c3-1.89,3.87-2,4.41-2a4,4,0,0,1,3.87,4.14c0,2.88-3,4.77-8.28,7.92V55c0,1.44.36,10.26.45,13.32v.54c0,5.76-3.78,10.26-12.15,10.26-3,0-8.64,0-8.64-5.4,0-2.34,1.44-4.68,4.05-4.68a3.06,3.06,0,0,1,.9.09,15.42,15.42,0,0,0,3.24.36c1.71,0,2.61-.63,2.61-2.61ZM424.62,80a5.11,5.11,0,0,1-5.13-5c0-1.89,1.26-3.87,4.41-4.5a53.77,53.77,0,0,0,19.62-8.19c-2.43-2.43-8.73-9.18-8.73-12.33,0-2.34,2.34-4.05,4.77-4.05a4.43,4.43,0,0,1,4,2.16,45.62,45.62,0,0,0,6.75,8.55C456.48,50.4,458,45.27,458,45.18c0-.54-.45-.9-1.53-.9h-4.32c-6.66,0-13.59.09-19.44.27h-.18c-2.52,0-3.87-2.07-3.87-4.23s1.26-4.23,3.78-4.23c4.41-.09,9.63-.09,15-.09,4,0,8.1,0,12.06.09,6.93.09,9.72,3.78,9.72,7.74,0,4.86-6.3,13.05-11.61,18.45a57.2,57.2,0,0,0,17.28,6.48,5.19,5.19,0,0,1,4.41,5c0,2.52-2,5-5.76,5-5.13,0-15.39-4.86-22.95-10.44C437.85,78,425.34,80,424.62,80ZM473.4,15.48c2.43,0,5,1.35,5,3.69v.63c0,13.32-7.29,13.5-14,13.5-10.35,0-11.16-3.87-11.16-12.15,0-3,0-6.12.09-8.19s-1.35-2.34-6.21-2.34c-2.25,0-3.6.09-3.6,2.43,0,8.19-1.08,15.21-8.1,21A7,7,0,0,1,431,35.73c-3.06,0-5.58-2.43-5.58-4.86a4,4,0,0,1,2.16-3.42c5-3.15,6-7.2,6-14,0-.9-.09-2-.09-3.06V10c0-7.29,8.91-7.56,13.23-7.56,9.09,0,16.2.18,16.2,8v.45c-.09,2.52-.09,5.31-.09,7.92,0,4.32.09,6,2.61,6,2.25,0,3.51,0,3.51-4.86v-.72C469,16.56,471.15,15.48,473.4,15.48Z"/><path class="cls-1" d="M487.71,77.94a4.9,4.9,0,0,1-5.13-4.86c0-2,1.26-3.87,4-4.59a47.8,47.8,0,0,0,16.74-7.92,4.63,4.63,0,0,1,2.52-.81,4.91,4.91,0,0,1,4.68,4.77,4.2,4.2,0,0,1-1.8,3.33C502,72.9,491.58,77.94,487.71,77.94ZM527,58.05l.09,3.33c0,1.8.09,5.58.09,7.92,0,6.12-3.69,11.07-13.23,11.07-4.59,0-9.36-.27-9.36-4.86,0-2.43,1.71-5,4.59-5,.27,0,.45.09.72.09a35.3,35.3,0,0,0,3.78.45c2.34,0,3.6-1,3.6-4.77V58.05l-30.15.18c-2.88,0-4.32-1.89-4.32-3.87s1.44-3.78,4.32-3.78H555a3.84,3.84,0,1,1,0,7.65Zm7.29-47.43v4.77c3.42,0,6.66.09,9.45.09,8.37.09,9.54,4.05,9.54,9.9s-1,10.26-9.54,10.35c-5.94.09-13.5.09-21.33.09s-15.84,0-22.86-.09c-9.18-.09-10-4.14-10-10.08,0-6.39,1.44-10.08,10-10.17,2.61,0,5.58-.09,8.73-.09V10.62L488,10.71a4.06,4.06,0,0,1-4.32-4.14A4.08,4.08,0,0,1,488,2.34h65.79A4,4,0,0,1,558,6.48a4,4,0,0,1-4.23,4.23ZM495.45,46.8a3.69,3.69,0,0,1-4.05-3.69,3.76,3.76,0,0,1,4.05-3.78h50.94c2.79,0,4.14,1.89,4.14,3.69a3.79,3.79,0,0,1-4.14,3.78Zm12.87-24.48h-5.67c-1.71,0-3.6.36-3.6,3.51,0,1.8.45,3.24,3.78,3.24l5.49.09Zm17.46-11.7h-9v4.77h9Zm0,11.61h-9v6.93h9Zm24,54a39.71,39.71,0,0,0-14.31-7.47c-2.34-.63-3.42-2.25-3.42-4A4.74,4.74,0,0,1,537,60.3c3.87,0,14.4,4,19,7.74a5.61,5.61,0,0,1,2.16,4.32,5.1,5.1,0,0,1-4.86,5.22A5.25,5.25,0,0,1,549.81,76.23ZM534.33,22.32v6.84c2.16,0,4.14-.09,5.94-.09,3.15,0,3.33-1.53,3.33-3.33,0-2.43-.27-3.42-3.42-3.42Z"/></g></g></svg>