<svg xmlns="http://www.w3.org/2000/svg" viewBox="0 0 756.09 79.74"><defs><style>.cls-1{fill:#000;}</style></defs><title>section_1_1</title><g id="レイヤー_2" data-name="レイヤー 2"><g id="title"><path class="cls-1" d="M23.13,79.74a5.14,5.14,0,0,1-5-5.31,4.76,4.76,0,0,1,3-4.5A22.76,22.76,0,0,0,29.34,64c-5.4-3.06-7.83-7.74-7.83-10.53,0-2.61,1.71-4.41,3.87-4.41,1.71,0,3.51,1,5.13,3.33a9.75,9.75,0,0,0,3.69,3.24,51.65,51.65,0,0,0,2.52-17.19,104,104,0,0,0-.54-10.71c-8.82,3.33-17.37,11.88-20.25,25.2-.27,1.44-.18,3.33-.36,4.77-.45,3.42-3.87,4.14-5.58,4.14C2,61.83,0,48.24,0,36V25.83a5.18,5.18,0,0,1,5.49-5.31c2.61,0,5.22,1.62,5.22,4.59a41.58,41.58,0,0,1-1.26,8.82,64.94,64.94,0,0,0-.72,8.82c0,1,.09,2.16.36,2.16q.13,0,.54-.81c5.94-13.86,15.75-21.6,25.56-24.66-1.08-7.29-1.26-8.37-1.26-9.18,0-3.33,2.43-4.77,5-4.77,2.79,0,5.76,1.71,6,4.41.27,2.34.63,5,.9,8,13.41.45,23.49,10.44,23.49,22.86,0,12.87-10.8,26.1-28.08,26.1H40C33.93,76.59,25.2,79.74,23.13,79.74ZM47,35.46a76.62,76.62,0,0,1-2.7,21.33c11.07-2,15.3-10.26,15.3-16.83,0-6.84-4.77-12.69-13-13.68C46.8,29.25,47,32.4,47,35.46Z"/><path class="cls-1" d="M110.79,74.88c-3.42,0-5.13-2.25-5.13-4.59,0-2.16,1.53-4.5,4.86-5,14-1.89,22.59-9.09,22.59-15.3,0-3.24-3.15-7.56-10.53-7.56-5.94,0-12.06,2.88-16.29,5-3.06,1.53-5.94,3.15-8.91,4.5a6.49,6.49,0,0,1-2.7.63A4.9,4.9,0,0,1,93.06,43c16.92-6.93,22-8.82,29.43-8.82,14.58,0,20.25,9.9,20.25,16.29C142.74,66.15,119.25,74.88,110.79,74.88Z"/><path class="cls-1" d="M178.83,28.35c-5,0-12.24-1-12.24-6.66a4,4,0,0,1,4.14-4.32,8,8,0,0,1,2.7.54A19.73,19.73,0,0,0,180,19a29.43,29.43,0,0,0,4.77-.45,20.66,20.66,0,0,0,.18-3.33c0-1.62-.09-3.42-.27-5.94V9c0-2.79,2.43-4.23,4.95-4.23,3.78,0,5.67,2.16,5.67,7,0,1-.09,2.07-.18,3.15a16.51,16.51,0,0,0,2.16-1.17A5.21,5.21,0,0,1,200,13a5,5,0,0,1,4.86,4.86c0,2.88-2.79,5.31-12.06,8.1a341.7,341.7,0,0,1-16.29,44.73,6.06,6.06,0,0,1-5.58,3.78,4.82,4.82,0,0,1-5-4.86,7.84,7.84,0,0,1,1-3.69,278.28,278.28,0,0,0,15.39-37.71C181.08,28.26,179.91,28.35,178.83,28.35Zm38.52,45.36c-11.34,0-21.6-4.77-21.6-10.35,0-3,2.25-5.67,5-5.67a5.17,5.17,0,0,1,3.78,1.71c2.79,2.79,5.67,3.51,9.72,3.51,2.61,0,5.85-.27,9.9-.54h.54c3.69,0,5.49,2.52,5.49,5C230.22,71.55,227.16,73.71,217.35,73.71Zm7.92-37.17a38.23,38.23,0,0,0-11.16-1.71,17.56,17.56,0,0,0-6.12.9,5,5,0,0,1-1.53.27,4.15,4.15,0,0,1-4.05-4.32c0-6.21,11.88-6.48,14-6.48,3.42,0,15.12.72,15.12,7.2a4.3,4.3,0,0,1-4.32,4.5A5.44,5.44,0,0,1,225.27,36.54Z"/><path class="cls-1" d="M275.49,14.76a6.44,6.44,0,0,0,1-1.08,11.31,11.31,0,0,1,8.73-4.32c5.49,0,10.8,4.41,13,10.26a52.15,52.15,0,0,1,3.06,17.55c0,14.22-5.94,29.07-20.52,40a10,10,0,0,1-5.94,2.25c-3.06,0-5.22-2-5.22-4.41,0-1.8,1.08-3.87,3.78-5.67,10.26-6.75,17.19-19.44,17.19-33.21a40.64,40.64,0,0,0-2.07-13c-1.17-3.51-3.42-4.95-5.67-4.95-4.23,0-9.45,4.77-9.45,15.93,0,1.44.09,3.15.18,5v.72c0,4.86-3,7.11-5.85,7.11-5.4,0-5.49-5.22-5.49-8.19a91,91,0,0,1,2.25-17.73c1-4.5,2.61-10.35,3.33-15.84a4.8,4.8,0,0,1,5-4.32c2.61,0,5.31,1.71,5.31,4.77a18,18,0,0,1-2.16,8,5.09,5.09,0,0,0-.54,1.08Z"/><path class="cls-1" d="M328.32,75.6c-3.42,0-4.95-2.16-4.95-4.5a4.87,4.87,0,0,1,4.95-4.95l29.7.09v-15l-15.84.09c-3.33,0-4.95-2.16-4.95-4.32a4.71,4.71,0,0,1,4.95-4.68H358V30H343.17a100.85,100.85,0,0,1-9.81,14.31,5.74,5.74,0,0,1-4.5,2.43,5,5,0,0,1-4.95-4.77,5.27,5.27,0,0,1,1.35-3.24A78.52,78.52,0,0,0,341,9.81a4.75,4.75,0,0,1,4.86-3.51c2.7,0,5.58,1.89,5.58,4.59,0,1.35-2,5.85-3.69,9.9l10.26.09V5.76c0-3.87,2.7-5.76,5.4-5.76s5.31,1.89,5.31,5.76V20.88L392,20.79a4.65,4.65,0,1,1,0,9.27L368.73,30V42.3h17.19c3.33,0,5,2.25,5,4.59,0,2.16-1.71,4.41-5,4.41l-17.19-.09v15l29-.09A4.7,4.7,0,0,1,402.48,71a4.53,4.53,0,0,1-4.77,4.59Z"/><path class="cls-1" d="M418.23,36.27a32,32,0,0,0-9.9-5.58,3.45,3.45,0,0,1-2.61-3.42,5.2,5.2,0,0,1,5-4.95c.45,0,15.12,2.52,15.12,9.45,0,2.88-2.16,5.67-4.77,5.67A4.59,4.59,0,0,1,418.23,36.27Zm-4,40.77A5.27,5.27,0,0,1,409,72a4.9,4.9,0,0,1,1.17-3.15c5-6.12,8.82-13.86,11.52-20.61a4.27,4.27,0,0,1,4.14-2.79,4.93,4.93,0,0,1,5.13,4.77c0,2.7-6.39,17-11.79,24.12A6.19,6.19,0,0,1,414.27,77Zm7.83-60.57a37.89,37.89,0,0,0-8.37-7,4,4,0,0,1-2-3.33c0-2.25,2.34-4.59,5-4.59,2,0,13.95,5.67,13.95,11.16a5.61,5.61,0,0,1-5.22,5.58A4.35,4.35,0,0,1,422.1,16.47Zm40.68,17.37V44.28c2.34,0,4.5.09,6.3.09,6.66.18,10.71,4.23,11,8.82.18,2.61.18,5.22.18,7.83,0,12.51-.45,16.29-22.14,16.29-13.41,0-21.33-.36-21.87-10-.09-2.52-.18-5.13-.18-7.74,0-2.07.09-4.14.18-6,.27-5.4,4-8.91,10.44-9.18,1.71-.09,3.87-.09,6.21-.09V33.84H435.06c-3.33,0-4.95-2.25-4.95-4.5s1.62-4.5,4.95-4.5l17.82-.09V15.39c-7.92.9-13.05,1.08-13.41,1.08a4.59,4.59,0,0,1-4.77-4.86c0-2.25,1.35-4.5,4.23-4.5,10.71-.09,20.79-.9,32.94-4.68a6.85,6.85,0,0,1,1.89-.27,4.66,4.66,0,0,1,4.68,4.77c0,4.41-3.78,5-15.66,7.11V24.75l18.36.09c3.42,0,5.13,2.25,5.13,4.5s-1.71,4.5-5.13,4.5Zm7.11,21.78c-.36-3.24-1.44-3.24-12.15-3.24-3.15,0-6.3.09-8.19.18-3.06.09-3.51,1.08-3.51,6.75,0,1.71,0,3.6.09,5,.18,4.05,3,4.05,12,4.05,12,0,12-.45,12-8.64C470.07,58.41,470,57,469.89,55.62Z"/><path class="cls-1" d="M518.76,53.46c0,4.77.45,11.7,9.36,11.7,5.85,0,13.77-3.42,21.69-9.54a6.11,6.11,0,0,1,3.87-1.44,5.85,5.85,0,0,1,3.15,10.44c-8.1,6.57-19.08,10.89-28.44,10.89-10.53,0-19.08-5.4-19.53-18.81-.09-1.35-.09-2.79-.09-4.05,0-7.65.81-14.4,1.17-22.41.27-4.95.63-12.24.63-17.64V10.17c-.09-4,2.88-5.49,5.49-5.49,2.88,0,5.76,1.8,5.76,5.13,0,2.43-.54,11.25-1.26,20.34C520,38.52,518.76,45.81,518.76,53.46Z"/><path class="cls-1" d="M591.93,28.35c-4.95,0-12.24-1-12.24-6.66a4,4,0,0,1,4.14-4.32,8,8,0,0,1,2.7.54A19.73,19.73,0,0,0,593.1,19a29.43,29.43,0,0,0,4.77-.45,20.66,20.66,0,0,0,.18-3.33c0-1.62-.09-3.42-.27-5.94V9c0-2.79,2.43-4.23,5-4.23,3.78,0,5.67,2.16,5.67,7,0,1-.09,2.07-.18,3.15a16.51,16.51,0,0,0,2.16-1.17,5.21,5.21,0,0,1,2.7-.81,5,5,0,0,1,4.86,4.86c0,2.88-2.79,5.31-12.06,8.1a341.7,341.7,0,0,1-16.29,44.73A6.06,6.06,0,0,1,584,74.43a4.82,4.82,0,0,1-5-4.86,7.84,7.84,0,0,1,1-3.69,278.28,278.28,0,0,0,15.39-37.71C594.18,28.26,593,28.35,591.93,28.35Zm38.52,45.36c-11.34,0-21.6-4.77-21.6-10.35,0-3,2.25-5.67,5-5.67a5.17,5.17,0,0,1,3.78,1.71c2.79,2.79,5.67,3.51,9.72,3.51,2.61,0,5.85-.27,9.9-.54h.54c3.69,0,5.49,2.52,5.49,5C643.32,71.55,640.26,73.71,630.45,73.71Zm7.92-37.17a38.23,38.23,0,0,0-11.16-1.71,17.56,17.56,0,0,0-6.12.9,5,5,0,0,1-1.53.27,4.15,4.15,0,0,1-4-4.32c0-6.21,11.88-6.48,14-6.48,3.42,0,15.12.72,15.12,7.2a4.3,4.3,0,0,1-4.32,4.5A5.44,5.44,0,0,1,638.37,36.54Z"/><path class="cls-1" d="M661.05,34.11c-.27-4.23-.45-6.12-.45-8.46V24.12a5.56,5.56,0,0,1,5.58-5.4c1.89,0,5,1.08,5,6.48,0,1.8-.09,3.15-.09,4.95,0,18.63,7.2,25.65,9.27,25.65.18,0,1.8,0,5-6.66a4.43,4.43,0,0,1,4.14-2.79c2.7,0,5.49,2.16,5.49,5,0,1.89-5.22,15.93-14.85,15.93C671.22,67.32,662.4,54.72,661.05,34.11Zm58.41,13c-1.44-7-5-14.13-9.63-17.28a3.82,3.82,0,0,1-1.89-3.24,4.71,4.71,0,0,1,4.86-4.41c5.67,0,17.55,14.49,17.55,23.4a5.77,5.77,0,0,1-5.85,5.85A5,5,0,0,1,719.46,47.16Z"/><path class="cls-1" d="M745.92,79.29a10.22,10.22,0,1,1,10.17-10.17A10.18,10.18,0,0,1,745.92,79.29Zm0-16.83a6.66,6.66,0,1,0,0,13.32,6.66,6.66,0,1,0,0-13.32Z"/></g></g></svg>