<svg xmlns="http://www.w3.org/2000/svg" viewBox="0 0 1165.86 101.5"><defs><style>.cls-1{fill:#fff;}</style></defs><title>subtitle</title><g id="レイヤー_2" data-name="レイヤー 2"><g id="title"><path class="cls-1" d="M38,79a17.55,17.55,0,0,0-3.6-3.74c-.54,10.36-5.49,14-15.66,12.47-9.45-1.45-15.39-8-15.39-14.06,0-5.68,5-11.47,15.75-10.36-.09-1.91-.27-3.83-.45-6Q9.32,56,0,54.51l1-8c3.42.75,9.54,2,16.38,3.53-1.08-8.35-2.25-18.07-2.7-23.63q8,.88,15.93,1.66c.81,5.52,1.62,15.62,2.07,25.22,4.14.86,7.92,1.64,10.89,2.3l.36,5q-5.58-.65-11.16-1.34c.18,2.81.27,5.52.36,8.42,3.87,2,7.2,4.5,9.09,7.36Q40.1,77,38,79ZM.18,38.79l3.33-8.53c5.49.91,10.35,5.45,10.35,10.4a8.15,8.15,0,0,1-1.17,4.13Q6.44,41.84.18,38.79Zm18.9,30.13c-4.32-.3-6.93,1.35-6.93,4a4.39,4.39,0,0,0,3.42,3.78c3.06.47,3.51-4.24,3.51-6.93Z"/><path class="cls-1" d="M84.69,66.84c6.12-.92,11-1.71,18.09-1.09C125.82,67.69,126,80.51,126,82c0,10.09-10.44,15.62-15.93,15.16a9.38,9.38,0,0,1-7.38-4.5c7.65-1.13,12.06-5.3,12.06-8.89,0-4.06-5-7.13-14.49-8a78.25,78.25,0,0,0-13.59.07Z"/><path class="cls-1" d="M164,97.36c1-10.75,3.51-25.13,4.77-35.43q-4.14.87-8.28,1.69l-3-8.06c3.15-.38,8.73-.92,14.67-1.49.63-4.2,1.53-8,2.16-11.61q6.07.74,12.15,1.43l-.9,8.88,2.43-.19,1.35,4.81-5.31,1.54V59c-1.17,8.51-4.77,29.35-7.56,39.41Q170.24,97.92,164,97.36Zm48.15-7c0,4.14-3,9.49-8.1,9.37A30.84,30.84,0,0,1,195.66,98l1-10.32q7.74,1.2,15.48,2.33Zm-3.06-17.7-1-1.55-7.2-1.33,1.17-11.58c10.44-1.92,15.21,2.45,15.21,7.22a7.37,7.37,0,0,1-7.83,7.25Z"/><path class="cls-1" d="M266,76.79a9.52,9.52,0,0,1-8.46,5.1,7.69,7.69,0,0,1-7.83-6.09A55.3,55.3,0,0,1,249,65.54c0-5,.27-9.9.54-12.24,4.23.18,8.46.33,12.69.48-.09,2-.09,4.23-.09,6.75,0,4.41.09,9.63.45,15.3ZM290.43,49a174.84,174.84,0,0,1,3,29.18c0,2.25-.09,4.33-.27,6.22-1,10.55-9.72,16-16.47,17.13.36-5,.45-10.18.45-15.4,0-13.41-.9-26.53-1.71-36Q282.92,49.58,290.43,49Z"/><path class="cls-1" d="M364.32,77.4c-17.28,13.26-29.16,17-29.16,17-7.2-5.94-10.08-12.77-10.08-19.34,0-12.42,11.34-25.93,27.27-26.65,14.49-.64,28.71,9.29,28.71,25.94,0,11.16-6.57,22.77-14.85,23.18-2.61.13-4.86-.85-5.4-2.53,6.3-2.19,11.7-10.48,11.7-19.39,0-12.15-9.45-18.23-18.63-17.82s-15.3,7.31-15.3,14.33a11.37,11.37,0,0,0,5.85,9.93s6.12-2,15.57-10.23Z"/><path class="cls-1" d="M411.48,93.57a338.52,338.52,0,0,1,10.35-55.92q6.89,0,13.77,0c-1.8,10.92-4.86,28.77-7.29,42.16,4.86-4.1,9.27-6.47,12.78-6.72,3.69-.25,5.85,2,6.93,5.82.63,1.75,2.61,2.24,5.13,2.06a35,35,0,0,0,7.74-1.82,13.18,13.18,0,0,1,.36,3.12c0,6.84-5.67,10.5-10.89,10.87-3.33.24-6.48-.8-7.92-3.22s-1.62-4-2.16-5.79c-.63-2-1.89-3-3.78-2.89-2.25.15-5.49,2.08-9.63,6-.45,2.37-.9,4.47-1.26,6Z"/><path class="cls-1" d="M541.71,67.42C536.49,78,527.13,83.84,518.13,84.57c-12.24,1-23.85-7.27-23.85-25a43.84,43.84,0,0,1,.63-7.43l-5-1.14-.63-6.16s4.05-.67,8.64-1a53.28,53.28,0,0,1,6.75-.17,40.4,40.4,0,0,0-2.07,12.13c0,11.16,6.3,17,13.05,16.5s14-7.63,15.66-22.34a25.07,25.07,0,0,1,2.61-.4c5.22-.43,12.51.59,17.19,2.71l-.45,10.21ZM538,39.11l4-5.19c4.32.45,5.94,2.57,5.94,4.73a5.17,5.17,0,0,1-4.59,5,4.85,4.85,0,0,1-1.89-.29Zm10.17-.85,4-5.19c4.32.45,5.94,2.56,5.94,4.73a5.17,5.17,0,0,1-4.59,5,4.85,4.85,0,0,1-1.89-.29Z"/><path class="cls-1" d="M596.52,56.78a10.5,10.5,0,0,1-8.46,5.76c-3.51.29-6.84-1.41-7.83-5.46a54.34,54.34,0,0,1-.72-10.2c0-5,.27-9.92.54-12.29l12.69-.53c-.09,2-.09,4.24-.09,6.76,0,4.41.09,9.62.45,15.26Zm24.39-29.49a171.49,171.49,0,0,1,3,29c0,2.25-.09,4.32-.27,6.23-1,10.61-9.72,16.65-16.47,18.21.36-5.07.45-10.21.45-15.43,0-13.41-.9-26.47-1.71-35.86Z"/><path class="cls-1" d="M695.79,41.55a14.88,14.88,0,0,0-.36-3.39c-10.44.76-41.22,3.29-41.22,3.31s-.18-5.66-.27-9.88c10.8-1.74,59-6.48,59-6.42.09,1.43.18,3,.18,4.58,0,22.58-13.41,23.65-14.58,23.74A9.93,9.93,0,0,1,692.46,52C694.35,49.94,695.79,45.87,695.79,41.55ZM670.14,61.71l8.91-12c8.1,1,15.39,6.11,15.39,13,0,3.42-1.71,7.33-5.94,11.43Q679.32,67.91,670.14,61.71Z"/><path class="cls-1" d="M758.61,69.64c.27-6.59,1.08-22.48,1.17-29.59a45.72,45.72,0,0,1-10,2.06c-8.91.57-12.87-2.76-14.94-9.46,9.54-1.12,36.18-12.41,47.43-19.2l6.21,11.9c-5,4.41-14.22,9.41-23.22,12.74l10.26-.59a42.66,42.66,0,0,1,.72,8.68,153.18,153.18,0,0,1-2.16,22.54Q766.35,69.16,758.61,69.64Z"/><path class="cls-1" d="M870.93,19.56c0,31.75-17.37,46-26.82,46.38A12.18,12.18,0,0,1,835,62.4c7.47-5.24,17.82-18.79,18.27-36.26-11.61.36-11.43.29-11.43.28s-.18-1.79-.27-4.76c-1.53,6.18-4.05,16.33-14.85,16.76a15,15,0,0,1-5.22-.78C824,31,827.82,17,828.9,8.81q7.25,1.11,14.49,2.26c-.27,1.63-.63,4.43-1.26,7.6,7.74-1,16.92-1.43,22.86-1.58,3.6-.09,5.94-.05,5.94-.05Z"/><path class="cls-1" d="M906.57,38.57s-.27-3.33-.36-8.55c12.15-1.19,48.6-1,48.6-.89.18,2.79.36,5.59.36,8.29,0,11.25-2.52,21.17-12.87,26.62a10,10,0,0,1-5.13,1.11,11.12,11.12,0,0,1-6.3-1.66c5-5.1,6.84-11.83,6.84-18A33.38,33.38,0,0,0,937,38.6Q921.78,38.46,906.57,38.57Zm5.31-19.11.63-13c2.16-.19,12.42-.83,19-.79,9,.06,12,5.43,12,10.37a11.74,11.74,0,0,1-.27,2.43Q927.54,18.85,911.88,19.46Z"/><path class="cls-1" d="M988.74,65.19l.81-10q9.13-.18,18.27-.26c0-5.4,0-10.8.09-16.2q-5.8-.69-11.61-1.35l1.08-6.25c3.54.36,7.08.74,10.62,1.12,0-3.77,0-7.55.09-11.33q-5.94.06-11.88.17c-2.43,6.55-6.3,8.73-11.7,8.54a15,15,0,0,1-3.06-.47,103.81,103.81,0,0,0,8.82-23.08c3.21.67,6.42,1.34,9.63,2-.45,1.69-.81,3.56-1.35,5.61,2.7-.15,6-.18,9.63-.26,0-4.5.09-9,.09-13.5q8,.14,16,.35l-.18,13c7.74,0,15,.17,19.89.35l1.26,7.2q-11.07-.15-22.14-.14c0,4.05,0,8.82-.09,13.4,4,.6,7.65,1.11,10.89,1.69l.36,6.41L1023,40.77c0,5.85,0,11.16-.09,14.31,7.11.15,13.77.34,18.18.66l1.53,10Q1015.7,65,988.74,65.19Z"/><path class="cls-1" d="M1060.11,37.34l3.87-12c8,2.78,12.42,5.2,12.42,13a12.39,12.39,0,0,1-1.26,5.63Q1067.63,40.64,1060.11,37.34Zm4.41,20.9a140.75,140.75,0,0,0,16.29-11.69,17.69,17.69,0,0,1,3.06,9.4,9.63,9.63,0,0,1-1.89,5.93c-2.7,3.41-9,6.76-9,6.77Q1068.75,63.43,1064.52,58.24Zm4-38.88,5.13-10.86c2.16,1.1,6.75,3.17,8.28,5.13a10.9,10.9,0,0,1,2.07,6.51,13,13,0,0,1-2,7Q1075.23,23.23,1068.48,19.36Zm49.41,56.91c0-.07-24.66-3.2-26.28-3.3,0-1-.09-2.26-.09-3.52,0-7,.54-17,.54-17q6.07,1.11,12.15,2.28V44.43q-8.37-.63-16.74-1.15l.63-7.32c3.6.11,10.08.46,16.92.91V28.05a18.26,18.26,0,0,1-2.25-.17l-.45-.05c-8.19-.95-11.43-6-13.32-10.22,10.8-1.12,24.39-3.06,32.31-4.79l5.58,11.72a61.75,61.75,0,0,1-12.06,3V37.63c6.21.6,11.88,1.19,15.12,1.64l1.62,6.8q-8.82-.84-17.64-1.54V56.14q6.52.64,13,1.35V59.2c0,3.33,0,11.07-.45,19Q1122.21,77.23,1117.89,76.27Zm2.07-5.49c0-4,.45-9.67.45-9.67q-6.66-1.14-13.32-2.21v1.35a81.18,81.18,0,0,1-.36,9q6.62,1.2,13.23,2.47Z"/><path class="cls-1" d="M1154.16,85.71c-6.39-1-11.07-5.39-11.07-11.43a9.84,9.84,0,0,1,11.43-10c6.3,1,11.34,6.72,11.34,12.12C1165.86,78.91,1164.24,87.33,1154.16,85.71Zm5-10.35c0-2.52-1.71-5.23-5.67-5.86-3.15-.5-5.4,2.22-5.4,5.19,0,3.24,2.79,5.2,5.67,5.65C1156.86,80.83,1159.2,78.69,1159.2,75.36Z"/></g></g></svg>